<?xml version="1.0" encoding="UTF-8" ?>
<!DOCTYPE svg PUBLIC "-//W3C//DTD SVG 1.1//EN" "http://www.w3.org/Graphics/SVG/1.1/DTD/svg11.dtd">
<svg width="645pt" height="645pt" viewBox="0 0 645 645" version="1.1" xmlns="http://www.w3.org/2000/svg">
<path fill="#ffffff" d=" M 0.00 0.00 L 645.00 0.00 L 645.00 645.00 L 0.00 645.00 L 0.00 0.00 Z" />
<path fill="#211909" d=" M 159.14 22.13 C 160.08 20.78 161.20 19.02 163.10 19.28 C 169.80 19.43 176.36 21.30 183.07 21.43 C 189.36 22.16 195.69 22.44 201.97 23.28 C 208.67 23.10 215.33 23.90 222.01 24.29 C 233.36 24.33 244.71 24.33 256.06 24.29 C 263.98 24.40 272.71 26.64 277.49 33.49 C 280.01 37.90 281.74 42.89 285.50 46.48 C 288.92 49.66 292.75 52.38 296.64 54.96 L 296.42 55.99 C 296.29 56.52 296.04 57.59 295.92 58.12 C 289.35 54.27 283.03 49.53 278.91 43.01 C 276.58 38.62 274.43 33.74 270.10 30.91 C 266.58 28.66 262.35 27.94 258.24 27.71 C 251.84 27.24 245.42 27.55 239.00 27.52 C 217.67 27.67 196.35 26.26 175.16 23.88 C 170.90 23.36 166.65 22.74 162.36 22.57 C 164.15 24.64 166.38 26.44 169.24 26.52 C 181.96 27.96 194.71 29.29 207.50 29.90 C 216.99 30.41 226.48 31.41 236.00 31.11 C 245.31 31.29 254.92 30.20 263.94 33.08 C 269.14 34.70 271.54 39.97 274.74 43.90 C 280.44 50.98 287.56 56.69 294.61 62.35 C 296.91 64.14 298.34 66.71 299.64 69.26 C 299.22 69.67 298.37 70.48 297.95 70.88 C 292.43 67.95 288.39 62.92 283.14 59.55 C 279.48 56.70 275.83 53.80 272.76 50.31 C 268.94 45.78 262.98 43.41 260.28 37.89 C 258.56 35.37 255.27 36.09 252.66 35.77 C 252.73 36.35 252.87 37.51 252.95 38.09 C 254.55 40.74 257.00 42.77 258.35 45.59 C 259.94 49.15 263.36 51.24 265.74 54.19 C 270.09 60.41 277.31 63.54 283.90 66.83 C 287.83 68.80 291.55 71.17 295.14 73.71 C 294.83 74.10 294.22 74.87 293.91 75.25 C 284.86 72.92 276.27 68.79 268.73 63.30 C 267.01 62.11 265.13 61.01 264.06 59.14 C 262.86 57.05 261.75 54.67 259.41 53.65 C 256.55 52.30 254.08 50.29 252.44 47.57 C 250.91 45.01 247.83 44.17 245.93 42.01 C 245.05 40.22 244.84 38.21 244.40 36.30 C 241.04 35.09 237.58 34.04 233.99 33.86 C 233.09 33.92 231.29 34.04 230.39 34.10 C 231.20 35.21 232.02 36.31 232.95 37.33 C 234.32 38.22 235.79 38.96 237.09 39.97 C 238.57 42.05 238.72 45.49 241.57 46.26 C 243.87 47.23 246.48 47.81 248.28 49.67 C 250.22 51.52 251.29 54.02 252.94 56.09 C 254.56 57.86 256.77 58.93 258.61 60.44 C 261.96 64.51 267.59 65.10 271.23 68.76 C 274.08 71.70 278.55 71.79 281.64 74.38 C 284.46 76.61 287.99 77.49 291.20 78.98 C 291.43 80.04 291.66 81.11 291.88 82.17 C 289.55 81.63 287.23 81.02 284.94 80.34 C 284.52 81.83 284.11 83.31 283.70 84.80 L 282.97 84.62 C 281.82 84.37 279.97 83.63 279.34 85.09 C 279.26 86.28 280.64 86.90 281.62 87.09 L 282.48 87.26 C 285.73 88.08 289.14 88.17 292.39 87.29 C 293.10 87.12 294.53 86.78 295.24 86.61 C 298.24 85.47 302.59 85.29 304.37 82.54 C 304.72 80.73 304.86 78.87 304.82 77.02 C 306.20 79.89 307.18 82.97 307.29 86.17 C 300.29 88.17 293.39 91.55 285.93 90.84 C 282.47 90.87 279.30 89.38 275.96 88.74 C 273.16 88.79 270.40 90.42 267.60 89.37 C 265.46 88.68 263.22 88.40 260.98 88.58 C 257.21 88.72 254.89 84.88 251.23 84.63 C 247.58 84.32 245.07 81.53 242.91 78.89 C 241.05 78.70 239.07 78.87 237.38 77.97 C 234.85 77.00 233.51 74.46 231.39 72.94 C 227.31 71.88 222.79 71.34 219.58 68.33 C 217.65 66.67 216.62 63.66 213.70 63.60 C 209.57 63.12 206.46 60.31 203.55 57.62 C 200.38 56.46 196.81 56.75 193.77 55.12 C 189.41 53.56 186.45 49.84 184.32 45.89 C 179.99 45.98 176.65 42.70 174.59 39.20 C 173.73 37.35 171.75 36.70 170.13 35.71 C 167.60 34.55 167.62 31.12 165.42 29.59 C 162.89 27.58 159.34 25.79 159.14 22.13 Z" />
<path fill="#f9f475" d=" M 162.36 22.57 C 166.65 22.74 170.90 23.36 175.16 23.88 C 196.35 26.26 217.67 27.67 239.00 27.52 C 245.42 27.55 251.84 27.24 258.24 27.71 C 243.15 28.73 228.02 28.04 212.92 28.27 C 210.99 28.30 209.22 29.13 207.50 29.90 C 194.71 29.29 181.96 27.96 169.24 26.52 C 166.38 26.44 164.15 24.64 162.36 22.57 Z" />
<path fill="#09090a" d=" M 279.40 29.41 C 283.16 27.04 287.36 24.87 291.95 25.25 C 297.59 25.81 303.86 23.76 308.94 27.12 C 318.75 34.13 327.40 42.97 333.45 53.46 C 335.25 56.60 336.12 60.28 338.42 63.13 C 338.94 63.78 339.99 65.08 340.52 65.72 C 340.18 65.86 339.51 66.14 339.18 66.27 C 340.17 70.20 341.22 74.11 341.95 78.09 C 342.03 78.56 342.19 79.49 342.26 79.95 C 342.71 82.64 343.16 85.32 343.55 88.02 C 343.70 89.14 343.84 90.27 344.02 91.40 C 346.28 98.77 349.79 106.13 355.48 111.50 C 358.55 114.80 357.27 119.73 357.65 123.80 C 376.92 123.88 396.18 123.76 415.45 123.89 C 418.60 151.67 436.39 177.30 461.47 189.71 C 472.42 195.47 484.64 198.80 496.98 199.45 C 504.25 199.21 511.70 200.29 518.79 198.28 C 515.83 223.65 512.00 248.99 505.38 273.71 C 495.52 311.42 480.18 347.88 458.68 380.47 C 449.59 394.20 439.55 407.31 428.56 419.56 C 424.98 422.69 422.65 426.95 419.02 430.02 C 412.50 435.11 407.11 441.43 400.97 446.95 C 387.68 457.75 374.33 468.59 359.77 477.68 C 349.66 484.49 339.00 490.47 328.22 496.16 C 327.16 497.00 325.88 496.69 324.82 496.05 C 292.27 478.73 261.43 457.76 234.88 432.11 C 227.47 425.89 221.61 418.05 214.51 411.47 C 209.11 404.58 203.23 398.05 197.91 391.09 C 174.02 359.64 155.61 324.01 143.94 286.27 C 136.39 261.47 131.18 235.89 129.05 210.08 C 128.30 206.77 128.41 203.36 128.41 200.00 C 134.48 200.42 140.62 200.68 146.66 199.76 C 166.45 198.62 186.29 191.60 201.17 178.24 C 210.67 169.32 218.58 158.55 223.47 146.41 C 225.04 141.66 227.42 137.19 228.34 132.23 C 229.27 129.47 229.41 126.23 231.12 123.86 C 252.81 123.74 274.51 123.87 296.20 123.79 C 297.00 118.71 297.63 113.48 299.97 108.82 C 302.40 103.84 304.86 98.85 306.79 93.65 C 307.86 91.30 307.25 88.66 307.29 86.17 C 307.18 82.97 306.20 79.89 304.82 77.02 C 303.15 72.73 302.62 68.14 301.50 63.71 C 300.89 60.91 297.99 59.69 295.92 58.12 C 296.04 57.59 296.29 56.52 296.42 55.99 C 298.80 56.58 301.00 57.67 303.27 58.60 C 301.16 50.75 298.23 42.58 291.78 37.22 C 289.61 35.67 289.43 32.93 288.34 30.72 C 285.38 30.14 282.38 29.85 279.40 29.41 Z" />
<path fill="#fdfa51" d=" M 207.50 29.90 C 209.22 29.13 210.99 28.30 212.92 28.27 C 228.02 28.04 243.15 28.73 258.24 27.71 C 262.35 27.94 266.58 28.66 270.10 30.91 C 274.43 33.74 276.58 38.62 278.91 43.01 C 277.52 43.31 276.13 43.60 274.74 43.90 C 271.54 39.97 269.14 34.70 263.94 33.08 C 254.92 30.20 245.31 31.29 236.00 31.11 C 226.48 31.41 216.99 30.41 207.50 29.90 Z" />
<path fill="#f9f475" d=" M 290.04 28.28 C 293.19 28.08 296.42 27.52 299.53 28.35 C 299.74 28.81 300.15 29.72 300.36 30.17 C 298.31 30.06 296.27 29.90 294.23 29.84 C 293.63 31.26 293.04 32.68 292.45 34.11 C 291.60 32.18 290.78 30.25 290.04 28.28 Z" />
<path fill="#fef44a" d=" M 302.55 30.33 C 303.34 29.36 304.17 28.43 305.04 27.54 C 305.53 30.32 305.81 33.13 306.13 35.93 C 306.51 36.00 307.28 36.14 307.66 36.20 C 308.03 36.26 308.77 36.38 309.15 36.43 C 309.13 37.23 309.09 38.82 309.07 39.62 C 311.76 39.35 315.01 40.28 315.79 43.18 C 316.39 47.31 316.41 51.50 316.82 55.65 C 316.14 55.71 314.79 55.84 314.12 55.91 C 314.01 54.00 313.91 52.10 313.80 50.19 C 313.24 50.24 312.12 50.33 311.56 50.37 C 311.44 52.16 311.33 53.96 311.11 55.75 L 310.51 56.28 C 310.02 54.44 309.87 52.24 307.96 51.27 C 307.84 53.65 307.83 56.04 307.94 58.42 C 307.23 59.33 306.58 60.29 305.97 61.26 C 306.15 54.14 303.66 47.17 300.08 41.10 C 301.92 40.99 303.77 40.86 305.62 40.71 C 305.58 39.48 305.56 38.24 305.57 37.01 C 304.19 37.08 302.81 37.16 301.45 37.30 C 302.10 36.40 302.78 35.51 303.32 34.53 C 303.00 33.32 302.45 32.19 301.89 31.07 C 302.06 30.89 302.39 30.52 302.55 30.33 Z" />
<path fill="#221908" d=" M 372.75 29.87 C 383.16 25.83 394.34 28.57 405.06 29.31 C 428.33 31.35 451.73 31.77 475.07 30.65 C 478.01 30.35 481.69 33.82 479.86 36.73 C 478.63 39.44 475.58 40.60 473.85 42.91 C 472.46 44.80 470.82 46.61 468.52 47.34 C 465.43 48.31 463.45 50.98 461.08 53.00 C 457.99 55.58 452.86 53.92 450.41 57.44 C 446.28 62.58 439.24 63.90 432.99 63.76 C 430.30 63.72 429.14 66.79 426.84 67.75 C 423.81 69.83 419.29 68.87 417.00 72.04 C 413.56 76.12 407.99 77.20 402.90 76.76 C 401.35 78.54 399.98 80.72 397.65 81.57 C 395.51 82.08 393.29 81.71 391.13 81.73 C 388.87 84.28 385.90 86.89 382.29 86.69 C 378.51 86.40 375.91 90.41 372.03 89.66 C 368.56 88.93 365.43 90.81 362.05 91.09 C 356.00 89.99 350.10 92.88 344.02 91.40 C 343.84 90.27 343.70 89.14 343.55 88.02 C 347.17 88.66 350.89 88.77 354.50 87.96 C 353.72 84.13 349.26 83.10 348.34 79.36 C 346.31 79.57 344.29 79.84 342.26 79.95 C 342.19 79.49 342.03 78.56 341.95 78.09 C 344.99 76.04 348.77 75.71 351.96 73.95 C 354.22 72.74 356.62 71.83 359.10 71.19 C 362.13 70.72 364.10 68.14 366.83 66.98 C 369.22 65.97 371.78 65.39 374.07 64.15 C 376.22 62.49 378.52 61.08 380.92 59.82 C 384.58 57.94 385.95 53.54 389.48 51.50 C 391.97 50.18 394.84 49.97 397.56 49.43 C 398.36 47.62 399.01 45.71 400.06 44.02 C 402.77 42.40 405.71 41.17 408.37 39.45 C 403.80 36.80 398.48 38.30 393.72 39.50 C 392.80 41.78 392.43 44.71 390.01 45.95 C 387.70 47.30 385.21 48.48 383.66 50.75 C 381.19 54.25 376.42 54.55 373.54 57.53 C 372.40 58.93 371.67 60.59 370.86 62.18 C 367.23 63.01 364.12 65.02 361.19 67.24 C 359.88 67.36 358.57 67.44 357.26 67.47 C 360.12 62.64 365.69 60.46 369.34 56.36 C 372.11 53.09 375.95 50.95 378.60 47.57 C 380.92 44.46 384.24 42.04 385.52 38.23 C 384.06 38.16 382.60 38.09 381.15 38.04 C 379.29 40.52 377.63 43.20 375.31 45.29 C 372.66 47.68 368.96 48.79 366.90 51.85 C 362.95 57.43 358.21 62.36 353.61 67.39 C 350.57 70.56 347.34 74.09 342.60 74.20 C 343.55 71.26 345.46 68.77 348.00 67.02 C 356.76 60.38 362.98 51.17 369.50 42.48 C 371.66 39.56 374.47 37.19 377.50 35.21 C 382.15 33.76 387.08 33.48 391.90 34.08 C 404.55 35.60 417.28 36.26 430.00 37.05 C 445.47 37.10 460.99 38.18 476.43 36.83 C 476.56 36.15 476.82 34.78 476.95 34.09 C 449.63 34.45 422.20 34.86 395.02 31.59 C 387.22 30.60 378.97 30.38 371.69 33.76 C 367.02 36.08 362.65 39.70 360.82 44.73 C 359.19 49.16 357.82 53.92 354.37 57.35 C 350.75 61.54 345.64 63.92 340.52 65.72 C 339.99 65.08 338.94 63.78 338.42 63.13 C 342.23 61.51 346.26 60.18 349.52 57.53 C 353.01 54.83 355.39 50.90 356.63 46.70 C 358.77 38.88 365.04 32.38 372.75 29.87 Z" />
<path fill="#fdf45d" d=" M 169.72 30.12 C 177.53 30.27 185.25 31.75 193.05 32.25 C 195.75 32.35 198.28 33.38 200.29 35.19 C 194.75 37.23 188.77 35.22 183.04 35.25 C 178.36 34.99 171.87 35.30 169.72 30.12 Z" />
<path fill="#fff92f" d=" M 294.23 29.84 C 296.27 29.90 298.31 30.06 300.36 30.17 C 300.91 30.21 302.00 30.29 302.55 30.33 C 302.39 30.52 302.06 30.89 301.89 31.07 C 302.45 32.19 303.00 33.32 303.32 34.53 C 302.78 35.51 302.10 36.40 301.45 37.30 L 300.99 37.92 C 300.37 37.90 299.13 37.87 298.50 37.85 C 296.09 37.75 294.46 35.29 292.45 34.11 C 293.04 32.68 293.63 31.26 294.23 29.84 Z" />
<path fill="#dac886" d=" M 308.05 30.66 C 310.02 32.26 312.65 33.81 312.21 36.78 C 311.44 36.69 309.91 36.52 309.15 36.43 C 308.77 36.38 308.03 36.26 307.66 36.20 C 307.78 34.35 307.90 32.50 308.05 30.66 Z" />
<path fill="#f5f47d" d=" M 371.69 33.76 C 378.97 30.38 387.22 30.60 395.02 31.59 C 422.20 34.86 449.63 34.45 476.95 34.09 C 476.82 34.78 476.56 36.15 476.43 36.83 C 460.99 38.18 445.47 37.10 430.00 37.05 C 417.28 36.26 404.55 35.60 391.90 34.08 C 387.08 33.48 382.15 33.76 377.50 35.21 C 375.54 34.81 373.61 34.28 371.69 33.76 Z" />
<path fill="#fbf949" d=" M 207.66 33.33 C 212.13 33.63 216.60 33.96 221.07 34.21 C 225.36 34.24 229.04 37.52 230.65 41.32 C 231.87 43.71 232.21 46.83 234.68 48.35 C 238.00 50.83 242.62 50.57 245.85 53.16 C 246.94 54.88 247.39 56.90 248.37 58.68 C 250.19 60.44 252.82 60.87 255.00 62.03 C 257.40 63.16 258.88 65.48 260.87 67.16 C 263.76 69.04 267.49 69.48 269.98 72.00 C 271.82 74.31 275.00 74.17 277.45 75.47 C 279.76 76.48 281.23 78.69 282.23 80.92 C 278.42 80.59 274.32 80.20 271.16 77.83 C 267.71 75.13 263.00 74.40 260.22 70.80 C 257.68 67.57 253.76 66.18 249.93 65.18 C 248.83 61.13 245.38 58.88 241.86 57.14 C 239.30 54.63 236.01 53.43 232.65 52.44 C 230.81 49.96 228.66 47.72 225.94 46.19 C 227.66 45.93 229.40 45.70 231.13 45.41 C 229.12 42.08 227.12 38.27 223.37 36.66 C 220.79 35.98 218.09 36.61 215.48 36.81 C 217.55 38.86 219.49 41.05 221.16 43.45 C 222.76 43.69 224.37 43.91 225.98 44.13 C 225.76 44.68 225.30 45.78 225.07 46.33 C 223.35 45.91 221.62 45.61 219.95 45.06 C 218.18 43.15 217.33 40.38 215.01 38.99 C 212.46 37.24 208.69 36.67 207.66 33.33 Z" />
<path fill="#f3ef88" d=" M 230.39 34.10 C 231.29 34.04 233.09 33.92 233.99 33.86 C 234.50 34.20 235.51 34.88 236.01 35.22 C 234.99 35.93 233.97 36.63 232.95 37.33 C 232.02 36.31 231.20 35.21 230.39 34.10 Z" />
<path fill="#fef636" d=" M 233.99 33.86 C 237.58 34.04 241.04 35.09 244.40 36.30 C 244.84 38.21 245.05 40.22 245.93 42.01 C 247.83 44.17 250.91 45.01 252.44 47.57 C 254.08 50.29 256.55 52.30 259.41 53.65 C 261.75 54.67 262.86 57.05 264.06 59.14 C 262.25 59.57 260.43 60.00 258.61 60.44 C 256.77 58.93 254.56 57.86 252.94 56.09 C 251.29 54.02 250.22 51.52 248.28 49.67 C 246.48 47.81 243.87 47.23 241.57 46.26 C 238.72 45.49 238.57 42.05 237.09 39.97 C 235.79 38.96 234.32 38.22 232.95 37.33 C 233.97 36.63 234.99 35.93 236.01 35.22 C 235.51 34.88 234.50 34.20 233.99 33.86 Z" />
<path fill="#fdf746" d=" M 360.82 44.73 C 362.65 39.70 367.02 36.08 371.69 33.76 C 373.61 34.28 375.54 34.81 377.50 35.21 C 374.47 37.19 371.66 39.56 369.50 42.48 C 362.98 51.17 356.76 60.38 348.00 67.02 C 345.46 68.77 343.55 71.26 342.60 74.20 C 347.34 74.09 350.57 70.56 353.61 67.39 C 354.82 67.44 356.04 67.48 357.26 67.47 C 358.57 67.44 359.88 67.36 361.19 67.24 C 360.43 68.52 359.77 69.85 359.10 71.19 C 356.62 71.83 354.22 72.74 351.96 73.95 C 348.77 75.71 344.99 76.04 341.95 78.09 C 341.22 74.11 340.17 70.20 339.18 66.27 C 339.51 66.14 340.18 65.86 340.52 65.72 C 345.64 63.92 350.75 61.54 354.37 57.35 C 357.82 53.92 359.19 49.16 360.82 44.73 Z" />
<path fill="#fff413" d=" M 215.48 36.81 C 218.09 36.61 220.79 35.98 223.37 36.66 C 227.12 38.27 229.12 42.08 231.13 45.41 C 229.40 45.70 227.66 45.93 225.94 46.19 L 225.07 46.33 C 225.30 45.78 225.76 44.68 225.98 44.13 C 224.37 43.91 222.76 43.69 221.16 43.45 C 219.49 41.05 217.55 38.86 215.48 36.81 Z" />
<path fill="#f7ef82" d=" M 252.66 35.77 C 255.27 36.09 258.56 35.37 260.28 37.89 C 257.84 37.97 255.39 38.04 252.95 38.09 C 252.87 37.51 252.73 36.35 252.66 35.77 Z" />
<path fill="#362401" d=" M 301.45 37.30 C 302.81 37.16 304.19 37.08 305.57 37.01 C 305.56 38.24 305.58 39.48 305.62 40.71 C 303.77 40.86 301.92 40.99 300.08 41.10 C 300.47 40.06 300.77 39.01 300.99 37.92 L 301.45 37.30 Z" />
<path fill="#eeef9e" d=" M 177.76 38.36 C 184.64 38.80 191.55 38.70 198.41 39.42 C 192.86 40.00 186.88 39.00 181.82 41.84 L 181.05 42.19 C 179.93 40.93 178.82 39.67 177.76 38.36 Z" />
<path fill="#fef628" d=" M 252.95 38.09 C 255.39 38.04 257.84 37.97 260.28 37.89 C 262.98 43.41 268.94 45.78 272.76 50.31 C 275.83 53.80 279.48 56.70 283.14 59.55 C 284.32 61.56 285.41 63.63 286.55 65.67 C 285.66 66.06 284.78 66.45 283.90 66.83 C 277.31 63.54 270.09 60.41 265.74 54.19 C 263.36 51.24 259.94 49.15 258.35 45.59 C 257.00 42.77 254.55 40.74 252.95 38.09 Z" />
<path fill="#fcfcfa" d=" M 298.50 37.85 C 299.13 37.87 300.37 37.90 300.99 37.92 C 300.77 39.01 300.47 40.06 300.08 41.10 C 298.62 41.41 297.49 38.87 298.50 37.85 Z" />
<path fill="#fcf552" d=" M 381.15 38.04 C 382.60 38.09 384.06 38.16 385.52 38.23 C 384.24 42.04 380.92 44.46 378.60 47.57 C 375.95 50.95 372.11 53.09 369.34 56.36 C 365.69 60.46 360.12 62.64 357.26 67.47 C 356.04 67.48 354.82 67.44 353.61 67.39 C 358.21 62.36 362.95 57.43 366.90 51.85 C 368.96 48.79 372.66 47.68 375.31 45.29 C 377.63 43.20 379.29 40.52 381.15 38.04 Z" />
<path fill="#fef53c" d=" M 393.72 39.50 C 398.48 38.30 403.80 36.80 408.37 39.45 C 405.71 41.17 402.77 42.40 400.06 44.02 C 399.01 45.71 398.36 47.62 397.56 49.43 C 394.84 49.97 391.97 50.18 389.48 51.50 C 385.95 53.54 384.58 57.94 380.92 59.82 C 378.52 61.08 376.22 62.49 374.07 64.15 C 373.00 63.49 371.93 62.83 370.86 62.18 C 371.67 60.59 372.40 58.93 373.54 57.53 C 376.42 54.55 381.19 54.25 383.66 50.75 C 385.21 48.48 387.70 47.30 390.01 45.95 C 392.43 44.71 392.80 41.78 393.72 39.50 Z" />
<path fill="#fff548" d=" M 198.41 39.42 C 202.32 39.43 207.01 39.60 209.56 43.05 C 209.46 45.97 205.96 44.90 204.01 45.15 C 196.59 44.38 188.80 44.86 181.82 41.84 C 186.88 39.00 192.86 40.00 198.41 39.42 Z" />
<path fill="#fcfb40" d=" M 411.91 40.89 C 414.16 39.22 417.10 40.13 419.67 40.17 C 415.02 42.41 408.59 44.06 407.66 50.01 C 411.51 49.85 415.39 49.28 418.95 47.72 C 418.57 48.73 418.18 49.73 417.79 50.74 C 414.20 51.11 410.27 51.04 407.21 53.23 C 405.14 54.59 403.82 57.23 401.10 57.35 C 398.75 57.62 396.64 58.67 394.96 60.32 C 393.77 60.05 392.59 59.80 391.41 59.56 C 390.91 58.51 390.36 57.49 389.75 56.51 C 394.25 53.15 401.81 55.37 404.61 49.71 C 406.21 46.18 408.55 42.94 411.91 40.89 Z" />
<path fill="#fef720" d=" M 419.67 40.17 C 421.73 39.81 423.83 39.88 425.92 39.76 C 425.70 40.95 425.50 42.14 425.30 43.33 C 425.93 43.23 427.19 43.04 427.82 42.95 C 424.62 44.07 421.68 45.72 418.95 47.72 C 415.39 49.28 411.51 49.85 407.66 50.01 C 408.59 44.06 415.02 42.41 419.67 40.17 Z" />
<path fill="#e7dd7a" d=" M 425.92 39.76 C 427.63 39.99 429.33 40.32 431.00 40.82 C 430.02 41.68 428.97 42.39 427.82 42.95 C 427.19 43.04 425.93 43.23 425.30 43.33 C 425.50 42.14 425.70 40.95 425.92 39.76 Z" />
<path fill="#f5f28a" d=" M 437.69 43.61 C 438.71 42.19 439.97 40.66 441.95 40.94 C 451.67 40.92 461.40 40.70 471.12 41.08 C 470.34 42.09 469.58 43.09 468.81 44.10 C 464.74 41.25 459.63 42.23 454.99 42.11 C 451.76 42.01 448.56 42.54 445.61 43.84 C 443.02 44.55 440.29 43.90 437.69 43.61 Z" />
<path fill="#fdfa51" d=" M 445.61 43.84 C 448.56 42.54 451.76 42.01 454.99 42.11 C 459.63 42.23 464.74 41.25 468.81 44.10 L 467.52 44.24 C 462.23 44.51 456.94 44.39 451.65 44.56 C 449.61 44.59 447.58 44.30 445.61 43.84 Z" />
<path fill="#f8f55a" d=" M 274.74 43.90 C 276.13 43.60 277.52 43.31 278.91 43.01 C 283.03 49.53 289.35 54.27 295.92 58.12 C 297.99 59.69 300.89 60.91 301.50 63.71 C 302.62 68.14 303.15 72.73 304.82 77.02 C 304.86 78.87 304.72 80.73 304.37 82.54 C 303.17 78.00 302.15 73.31 299.64 69.26 C 298.34 66.71 296.91 64.14 294.61 62.35 C 287.56 56.69 280.44 50.98 274.74 43.90 Z" />
<path fill="#312401" d=" M 308.11 42.78 C 308.90 42.77 310.50 42.76 311.30 42.75 C 311.26 44.42 311.23 46.10 311.19 47.78 C 310.43 47.77 308.90 47.76 308.13 47.75 C 308.12 46.10 308.11 44.44 308.11 42.78 Z" />
<path fill="#fcfcfa" d=" M 451.65 44.56 C 456.94 44.39 462.23 44.51 467.52 44.24 C 462.33 45.51 456.92 44.82 451.65 44.56 Z" />
<path fill="#fff146" d=" M 189.17 47.43 C 197.76 47.89 206.39 47.82 214.93 48.95 C 217.60 49.53 221.50 50.47 221.50 53.88 C 214.18 54.00 206.77 54.62 199.50 53.56 C 195.47 52.76 191.53 50.94 189.17 47.43 Z" />
<path fill="#fff841" d=" M 428.08 51.70 C 426.35 48.29 431.53 47.13 434.00 47.10 C 443.41 47.17 452.81 47.95 462.22 48.28 C 458.11 52.22 452.26 52.17 446.98 52.81 C 440.67 52.80 434.35 52.25 428.08 51.70 Z" />
<path fill="#fefc1f" d=" M 197.64 50.41 C 201.22 49.94 204.85 49.98 208.45 50.38 C 206.18 53.96 200.45 52.67 197.64 50.41 Z" />
<path fill="#382a01" d=" M 311.56 50.37 C 312.12 50.33 313.24 50.24 313.80 50.19 C 313.91 52.10 314.01 54.00 314.12 55.91 C 313.37 55.87 311.86 55.79 311.11 55.75 C 311.33 53.96 311.44 52.16 311.56 50.37 Z" />
<path fill="#fef835" d=" M 320.15 50.67 C 321.36 51.14 322.57 51.62 323.78 52.10 C 323.96 53.68 324.21 55.26 324.22 56.86 C 323.39 58.01 322.37 59.01 321.37 60.02 C 320.97 60.06 320.17 60.15 319.76 60.19 L 318.85 60.28 C 318.73 63.69 318.65 67.13 319.15 70.52 C 317.84 68.71 316.42 66.97 314.91 65.32 C 314.60 64.14 314.33 62.94 314.05 61.75 C 313.27 61.56 312.50 61.36 311.74 61.16 C 311.79 63.16 311.88 65.16 311.94 67.15 C 310.23 68.17 308.32 67.75 306.58 67.07 C 306.19 65.17 305.77 63.22 305.97 61.26 C 306.58 60.29 307.23 59.33 307.94 58.42 C 308.79 57.71 309.65 57.00 310.51 56.28 L 311.11 55.75 C 311.86 55.79 313.37 55.87 314.12 55.91 C 314.79 55.84 316.14 55.71 316.82 55.65 C 317.79 55.45 318.76 55.22 319.72 54.96 C 319.85 53.53 320.00 52.10 320.15 50.67 Z" />
<path fill="#423506" d=" M 307.96 51.27 C 309.87 52.24 310.02 54.44 310.51 56.28 C 309.65 57.00 308.79 57.71 307.94 58.42 C 307.83 56.04 307.84 53.65 307.96 51.27 Z" />
<path fill="#fce992" d=" M 414.45 57.94 C 420.45 52.86 429.05 55.33 436.19 55.69 C 430.34 55.79 424.45 55.70 418.66 56.66 C 420.21 57.80 421.78 58.92 423.41 59.96 C 420.55 59.35 415.93 61.09 414.45 57.94 Z" />
<path fill="#fffc33" d=" M 418.66 56.66 C 424.45 55.70 430.34 55.79 436.19 55.69 C 437.79 55.69 439.40 55.77 441.01 55.85 C 440.66 57.24 440.32 58.63 439.98 60.02 C 434.49 60.41 428.82 61.40 423.41 59.96 C 421.78 58.92 420.21 57.80 418.66 56.66 Z" />
<path fill="#f5f47d" d=" M 441.01 55.85 C 443.13 55.92 445.26 56.01 447.38 56.17 C 445.25 58.04 442.68 59.25 439.98 60.02 C 440.32 58.63 440.66 57.24 441.01 55.85 Z" />
<path fill="#fef64b" d=" M 207.77 57.45 C 213.82 56.97 219.91 56.66 225.99 56.84 C 227.68 57.14 230.78 57.46 229.94 59.91 C 222.63 62.03 214.15 62.12 207.77 57.45 Z" />
<path fill="#f7f581" d=" M 381.92 63.34 C 385.99 63.37 388.87 60.29 389.75 56.51 C 390.36 57.49 390.91 58.51 391.41 59.56 C 392.59 59.80 393.77 60.05 394.96 60.32 C 392.35 61.50 389.10 61.83 387.32 64.32 C 386.03 65.67 385.24 67.94 383.06 67.97 C 378.99 68.48 375.62 70.88 372.65 73.53 C 372.18 72.29 371.72 71.05 371.27 69.81 C 374.16 68.89 376.53 66.99 378.65 64.88 C 380.84 65.41 383.06 65.85 385.30 66.13 C 384.20 65.16 383.12 64.17 381.92 63.34 Z" />
<path fill="#fcf263" d=" M 258.61 60.44 C 260.43 60.00 262.25 59.57 264.06 59.14 C 265.13 61.01 267.01 62.11 268.73 63.30 C 276.27 68.79 284.86 72.92 293.91 75.25 C 292.98 76.48 292.09 77.73 291.20 78.98 C 287.99 77.49 284.46 76.61 281.64 74.38 C 278.55 71.79 274.08 71.70 271.23 68.76 C 267.59 65.10 261.96 64.51 258.61 60.44 Z" />
<path fill="#fbf858" d=" M 283.14 59.55 C 288.39 62.92 292.43 67.95 297.95 70.88 C 296.98 71.80 296.04 72.73 295.14 73.71 C 291.55 71.17 287.83 68.80 283.90 66.83 C 284.78 66.45 285.66 66.06 286.55 65.67 C 285.41 63.63 284.32 61.56 283.14 59.55 Z" />
<path fill="#d4d391" d=" M 319.76 60.19 C 320.17 60.15 320.97 60.06 321.37 60.02 C 322.55 60.37 323.72 60.77 324.87 61.22 C 326.33 64.30 326.25 67.84 326.92 71.13 C 324.32 67.62 322.19 63.81 319.76 60.19 Z" />
<path fill="#492901" d=" M 311.74 61.16 C 312.50 61.36 313.27 61.56 314.05 61.75 C 314.33 62.94 314.60 64.14 314.91 65.32 C 313.92 65.95 312.94 66.56 311.94 67.15 C 311.88 65.16 311.79 63.16 311.74 61.16 Z" />
<path fill="#faf773" d=" M 370.86 62.18 C 371.93 62.83 373.00 63.49 374.07 64.15 C 371.78 65.39 369.22 65.97 366.83 66.98 C 364.10 68.14 362.13 70.72 359.10 71.19 C 359.77 69.85 360.43 68.52 361.19 67.24 C 364.12 65.02 367.23 63.01 370.86 62.18 Z" />
<path fill="#fdf755" d=" M 404.60 64.11 C 406.23 63.08 407.81 61.53 409.92 61.84 C 415.73 61.90 421.49 62.93 427.27 63.44 C 420.87 68.98 411.74 66.90 404.60 64.11 Z" />
<path fill="#fff738" d=" M 223.85 64.18 C 229.25 64.09 235.31 60.89 240.19 64.41 C 239.94 65.48 239.91 66.57 240.07 67.66 C 234.86 70.54 228.67 69.69 223.44 67.34 C 223.54 66.55 223.75 64.97 223.85 64.18 Z" />
<path fill="#fcfcfa" d=" M 220.77 64.61 C 221.54 64.51 223.08 64.29 223.85 64.18 C 223.75 64.97 223.54 66.55 223.44 67.34 C 222.55 66.43 221.65 65.53 220.77 64.61 Z" />
<path fill="#d3c98b" d=" M 240.19 64.41 C 242.73 63.41 242.56 68.83 240.07 67.66 C 239.91 66.57 239.94 65.48 240.19 64.41 Z" />
<path fill="#f9f037" d=" M 378.65 64.88 C 379.70 64.30 380.79 63.79 381.92 63.34 C 383.12 64.17 384.20 65.16 385.30 66.13 C 383.06 65.85 380.84 65.41 378.65 64.88 Z" />
<path fill="#fdf845" d=" M 306.58 67.07 C 308.32 67.75 310.23 68.17 311.94 67.15 C 312.94 66.56 313.92 65.95 314.91 65.32 C 316.42 66.97 317.84 68.71 319.15 70.52 C 319.88 70.77 321.35 71.28 322.08 71.53 C 321.94 75.33 319.56 78.90 321.09 82.72 C 324.70 84.20 328.68 85.58 331.08 88.87 C 332.53 90.96 334.48 92.61 336.54 94.08 C 336.77 93.43 337.24 92.13 337.47 91.47 C 338.97 93.00 340.44 94.56 341.78 96.23 C 344.44 100.96 347.72 106.14 347.05 111.79 C 343.84 114.72 339.37 115.43 335.48 117.07 C 335.37 119.20 335.24 121.33 335.10 123.47 C 333.44 123.43 331.78 123.41 330.13 123.36 C 330.81 120.06 329.00 115.28 332.48 113.27 C 335.85 111.68 336.74 108.12 337.76 104.87 C 338.99 102.41 338.12 99.65 337.92 97.07 C 337.35 97.13 336.21 97.26 335.64 97.32 C 333.80 101.78 333.85 107.35 330.07 110.74 C 329.50 111.16 328.37 112.00 327.81 112.42 C 327.52 108.00 327.56 103.56 327.75 99.13 C 329.05 98.55 330.36 97.97 331.68 97.40 C 331.80 96.23 331.92 95.07 332.04 93.91 C 330.29 94.96 328.57 96.08 326.87 97.21 C 326.06 96.65 325.26 96.09 324.46 95.54 C 324.13 93.22 324.87 90.54 323.69 88.47 C 321.06 86.74 318.21 85.37 315.36 84.08 C 314.34 81.57 312.62 79.44 310.68 77.58 C 310.97 80.31 311.43 83.01 312.03 85.69 C 313.40 85.90 314.77 86.12 316.11 86.49 C 316.41 86.77 317.02 87.33 317.33 87.61 C 315.78 87.86 314.25 88.15 312.72 88.43 C 312.34 91.04 311.91 93.65 311.02 96.14 C 311.15 92.33 311.28 88.47 310.26 84.76 C 308.70 78.94 308.19 72.89 306.58 67.07 Z" />
<path fill="#e2d98b" d=" M 392.88 68.34 C 396.24 66.94 399.88 66.08 403.43 67.44 L 402.44 67.63 C 400.23 68.05 398.02 68.37 395.80 68.71 C 395.66 69.69 395.52 70.68 395.38 71.66 C 393.62 71.32 393.07 69.93 392.88 68.34 Z" />
<path fill="#fdfb1c" d=" M 395.80 68.71 C 398.02 68.37 400.23 68.05 402.44 67.63 C 404.56 69.14 406.77 70.51 409.03 71.79 C 404.94 71.84 400.86 71.96 396.77 72.11 C 396.41 72.12 395.67 72.14 395.31 72.15 L 395.38 71.66 C 395.52 70.68 395.66 69.69 395.80 68.71 Z" />
<path fill="#f9f475" d=" M 402.44 67.63 C 406.50 68.09 410.53 68.94 414.39 70.27 C 409.58 74.08 402.20 75.15 396.77 72.11 C 400.86 71.96 404.94 71.84 409.03 71.79 C 406.77 70.51 404.56 69.14 402.44 67.63 Z" />
<path fill="#1d1e07" d=" M 309.86 70.11 C 312.02 69.55 314.23 69.24 316.47 69.17 C 316.75 73.58 317.83 77.92 317.87 82.35 C 315.04 81.03 314.46 77.66 312.22 75.71 C 310.51 74.32 310.27 72.12 309.86 70.11 Z" />
<path fill="#f5f47d" d=" M 235.55 73.65 C 238.75 71.55 242.68 68.90 246.65 70.21 C 248.97 70.87 247.99 73.51 246.27 74.22 C 242.78 75.47 238.76 75.80 235.55 73.65 Z" />
<path fill="#fff71b" d=" M 297.95 70.88 C 298.37 70.48 299.22 69.67 299.64 69.26 C 302.15 73.31 303.17 78.00 304.37 82.54 C 302.59 85.29 298.24 85.47 295.24 86.61 C 291.36 86.22 287.49 85.69 283.70 84.80 C 284.11 83.31 284.52 81.83 284.94 80.34 C 287.23 81.02 289.55 81.63 291.88 82.17 C 291.66 81.11 291.43 80.04 291.20 78.98 C 292.09 77.73 292.98 76.48 293.91 75.25 C 294.22 74.87 294.83 74.10 295.14 73.71 C 296.04 72.73 296.98 71.80 297.95 70.88 Z" />
<path fill="#fcfa46" d=" M 362.56 73.55 C 365.22 71.79 368.07 70.32 371.27 69.81 C 371.72 71.05 372.18 72.29 372.65 73.53 C 369.72 75.69 365.95 75.99 362.92 77.94 C 359.50 80.09 355.35 80.09 351.46 80.02 C 353.32 75.63 358.41 74.58 362.56 73.55 Z" />
<path fill="#fffc33" d=" M 239.61 74.14 C 239.80 70.57 243.94 72.12 246.26 72.09 C 244.47 73.84 241.98 74.01 239.61 74.14 Z" />
<path fill="#f9fa47" d=" M 387.34 73.20 C 391.16 71.77 394.55 74.82 397.80 76.39 C 398.58 79.24 394.24 78.78 392.45 78.48 C 390.14 77.88 385.93 77.34 386.08 74.28 C 386.39 74.01 387.02 73.47 387.34 73.20 Z" />
<path fill="#fefb3a" d=" M 246.05 77.97 C 249.03 75.98 252.19 73.13 256.07 74.24 C 255.89 75.40 255.88 76.57 256.06 77.73 L 256.16 78.65 C 254.29 79.66 252.55 82.16 250.20 81.11 C 248.48 80.59 247.30 79.16 246.05 77.97 Z" />
<path fill="#dad2ad" d=" M 256.07 74.24 C 258.52 73.30 258.41 78.84 256.06 77.73 C 255.88 76.57 255.89 75.40 256.07 74.24 Z" />
<path fill="#f5f47d" d=" M 375.52 77.06 C 380.17 73.99 384.62 77.65 387.76 80.96 C 385.86 82.44 383.67 83.43 381.32 83.94 C 379.18 81.83 376.99 79.71 375.52 77.06 Z" />
<path fill="#f5f47d" d=" M 260.64 78.60 C 262.76 77.57 265.57 78.33 266.86 80.33 C 267.77 83.17 264.55 85.45 261.96 85.16 C 259.58 85.61 257.68 84.02 255.87 82.76 C 257.38 81.29 258.86 79.75 260.64 78.60 Z" />
<path fill="#fafc04" d=" M 310.68 77.58 C 312.62 79.44 314.34 81.57 315.36 84.08 C 315.55 84.68 315.92 85.88 316.11 86.49 C 314.77 86.12 313.40 85.90 312.03 85.69 C 311.43 83.01 310.97 80.31 310.68 77.58 Z" />
<path fill="#fef720" d=" M 377.84 77.95 C 379.96 78.08 382.08 78.32 384.20 78.64 C 384.10 79.57 383.90 81.42 383.80 82.34 C 381.32 81.62 379.27 80.07 377.84 77.95 Z" />
<path fill="#fef845" d=" M 342.26 79.95 C 344.29 79.84 346.31 79.57 348.34 79.36 C 349.26 83.10 353.72 84.13 354.50 87.96 C 350.89 88.77 347.17 88.66 343.55 88.02 C 343.16 85.32 342.71 82.64 342.26 79.95 Z" />
<path fill="#fdf649" d=" M 367.74 85.20 C 365.65 83.56 366.36 79.54 369.20 79.37 C 372.94 78.60 375.71 81.85 377.35 84.78 C 374.50 86.81 370.71 87.17 367.74 85.20 Z" />
<path fill="#fff511" d=" M 258.83 81.23 C 260.49 79.56 262.97 80.19 265.07 80.03 C 264.46 81.39 263.86 82.75 263.24 84.10 C 261.69 83.27 260.15 82.40 258.83 81.23 Z" />
<path fill="#f3f383" d=" M 270.26 82.92 C 272.51 82.89 274.76 82.90 277.02 82.96 C 276.83 83.59 276.46 84.83 276.27 85.45 C 273.53 85.91 270.76 86.23 267.98 86.36 C 268.74 85.21 269.50 84.07 270.26 82.92 Z" />
<path fill="#fcf55c" d=" M 356.66 82.83 C 358.69 82.81 360.72 82.86 362.74 82.93 C 363.61 84.39 364.53 85.82 365.41 87.28 C 362.99 87.77 360.53 87.92 358.07 87.96 C 357.55 86.26 357.04 84.56 356.66 82.83 Z" />
<path fill="#fcfcfa" d=" M 279.34 85.09 C 279.97 83.63 281.82 84.37 282.97 84.62 C 282.57 85.47 282.12 86.30 281.62 87.09 C 280.64 86.90 279.26 86.28 279.34 85.09 Z" />
<path fill="#f9f475" d=" M 281.62 87.09 C 282.12 86.30 282.57 85.47 282.97 84.62 L 283.70 84.80 C 287.49 85.69 291.36 86.22 295.24 86.61 C 294.53 86.78 293.10 87.12 292.39 87.29 C 289.09 87.49 285.78 87.48 282.48 87.26 L 281.62 87.09 Z" />
<path fill="#beb935" d=" M 282.48 87.26 C 285.78 87.48 289.09 87.49 292.39 87.29 C 289.14 88.17 285.73 88.08 282.48 87.26 Z" />
<path fill="#fcfcfa" d=" M 333.65 87.26 C 334.41 87.28 335.93 87.31 336.69 87.33 C 338.67 90.12 340.39 93.10 341.78 96.23 C 340.44 94.56 338.97 93.00 337.47 91.47 C 336.17 90.09 334.57 88.96 333.65 87.26 Z" />
<path fill="#fff72e" d=" M 312.72 88.43 C 314.25 88.15 315.78 87.86 317.33 87.61 C 318.94 88.22 320.99 88.55 322.02 90.07 C 322.17 91.59 322.25 93.13 322.26 94.67 C 320.21 93.78 318.28 92.65 316.26 91.71 C 315.48 95.19 316.65 98.23 318.69 100.98 C 317.06 104.25 311.57 106.72 314.22 110.87 C 314.43 111.80 314.60 112.74 314.78 113.67 C 314.26 114.82 313.68 115.93 313.17 117.07 C 312.05 116.66 310.90 116.33 309.77 115.98 C 308.24 112.34 307.51 108.44 306.99 104.54 C 307.71 104.35 309.16 103.95 309.89 103.76 C 309.52 102.22 309.06 100.70 308.74 99.16 C 309.53 98.17 310.33 97.20 311.02 96.14 C 311.91 93.65 312.34 91.04 312.72 88.43 Z" />
<path fill="#0e6349" d=" M 102.69 103.57 C 104.69 100.42 107.64 97.99 110.63 95.82 C 112.71 99.54 115.12 103.61 114.43 108.05 C 113.23 114.13 110.10 120.24 104.67 123.54 C 103.82 124.12 103.17 124.89 102.73 125.84 C 106.91 126.67 109.73 122.94 113.36 121.65 C 117.09 119.78 121.36 120.44 125.37 120.46 C 125.39 125.62 122.82 130.69 118.44 133.49 C 113.66 137.28 107.36 138.02 101.46 137.50 C 100.66 140.44 99.88 143.40 99.51 146.44 C 103.49 144.56 107.03 141.63 111.41 140.66 C 114.25 140.16 117.15 140.45 120.01 140.61 C 120.40 147.18 116.00 152.82 110.21 155.43 C 106.08 157.94 101.18 157.86 96.54 157.51 C 95.86 160.36 95.37 163.25 94.98 166.16 C 100.90 162.61 107.63 158.96 114.75 160.89 C 115.23 167.38 110.61 173.15 104.95 175.79 C 101.07 177.71 96.67 177.99 92.42 178.22 C 92.00 180.57 91.58 182.92 91.30 185.29 C 95.10 183.94 98.09 180.91 102.07 180.00 C 104.84 179.25 107.73 179.50 110.56 179.59 C 110.98 185.63 107.52 191.37 102.38 194.39 C 98.58 197.16 93.88 197.86 89.31 198.22 C 89.23 200.35 89.12 202.47 89.09 204.60 C 92.59 203.09 95.35 200.21 99.07 199.16 C 101.77 198.10 104.70 198.34 107.54 198.47 C 108.06 209.24 97.83 218.19 87.38 217.65 C 87.25 220.32 87.09 222.99 87.09 225.66 C 89.98 224.15 92.05 221.60 94.50 219.52 C 97.92 217.18 102.18 216.57 106.24 216.47 C 105.90 220.33 106.13 224.56 103.87 227.91 C 99.86 233.55 93.43 237.91 86.29 237.68 C 86.22 240.61 86.18 243.55 86.36 246.48 C 89.90 244.03 92.72 240.63 96.59 238.65 C 99.27 237.21 102.40 237.36 105.33 236.95 C 106.01 242.45 104.34 248.38 100.06 252.08 C 96.47 255.95 91.18 257.27 86.22 258.39 C 86.24 261.39 86.35 264.38 86.70 267.36 C 90.16 264.24 92.72 260.01 97.12 258.06 C 99.55 256.55 102.37 256.15 105.18 256.22 C 107.89 267.33 97.66 277.24 87.19 278.41 C 87.33 281.06 87.52 283.71 87.81 286.35 C 91.96 283.69 94.52 278.94 99.24 277.15 C 101.52 276.19 103.99 275.82 106.40 275.34 C 106.51 277.90 106.84 280.47 106.56 283.03 C 104.18 290.68 97.20 296.94 89.14 297.80 C 89.39 300.83 89.38 303.98 90.64 306.82 C 93.19 303.99 95.34 300.78 98.24 298.28 C 101.24 295.69 105.18 294.33 109.13 294.37 C 110.77 300.69 108.05 307.14 103.57 311.58 C 100.75 315.11 96.13 316.01 92.11 317.47 C 92.34 320.34 92.39 323.33 93.91 325.88 C 96.84 322.45 99.36 318.58 102.97 315.78 C 105.44 313.98 108.51 313.43 111.46 312.95 C 111.75 316.47 112.29 320.10 111.32 323.57 C 108.52 329.92 102.94 335.31 95.98 336.69 C 96.33 339.99 97.17 343.20 98.08 346.39 C 101.05 342.08 102.99 336.61 107.78 333.93 C 110.03 332.55 112.54 331.59 115.16 331.20 C 115.77 334.53 116.94 338.03 115.56 341.35 C 113.59 348.44 107.86 353.80 101.05 356.29 C 101.39 358.97 101.95 361.64 103.05 364.12 C 103.43 364.01 104.18 363.77 104.55 363.65 C 108.06 357.94 112.14 351.02 119.49 350.12 C 120.60 354.03 121.50 358.31 120.14 362.29 C 118.03 368.46 112.65 372.83 107.10 375.85 C 108.20 379.16 108.74 383.00 111.50 385.43 C 112.83 381.90 113.93 378.16 116.29 375.14 C 118.55 372.13 121.99 370.32 125.44 369.01 C 128.16 374.13 128.65 380.53 125.53 385.59 C 123.62 390.50 119.34 393.72 114.81 396.04 C 115.87 398.86 117.15 401.59 118.41 404.33 C 119.89 401.41 120.94 398.30 122.58 395.47 C 125.26 392.07 128.46 388.96 132.45 387.15 C 134.24 391.07 135.69 395.48 134.56 399.82 C 133.15 406.14 128.11 410.67 123.13 414.38 C 126.18 420.97 129.04 427.70 133.10 433.76 C 151.32 466.53 174.94 496.17 202.13 521.94 C 205.10 525.69 209.20 528.19 212.67 531.41 C 235.97 551.46 261.49 568.94 288.85 582.97 C 298.71 588.61 309.20 593.03 319.59 597.57 C 321.91 598.46 324.41 600.22 326.96 599.09 C 355.59 586.89 382.77 571.27 407.82 552.80 C 417.99 544.68 428.84 537.32 437.99 527.98 C 445.38 522.08 451.62 514.92 458.40 508.34 C 462.36 503.96 465.83 499.15 469.97 494.92 C 474.57 490.11 478.13 484.45 482.49 479.44 C 490.52 469.06 497.68 458.05 504.84 447.07 C 510.09 437.43 515.57 427.91 520.41 418.05 C 519.49 415.53 516.48 414.33 514.83 412.23 C 508.84 406.78 507.01 396.89 511.92 390.17 C 518.05 393.37 522.48 398.99 524.70 405.48 C 525.01 405.60 525.62 405.84 525.92 405.96 C 527.06 403.79 528.17 401.53 528.54 399.09 C 528.01 397.78 526.52 397.32 525.54 396.44 C 520.33 392.73 515.95 386.72 516.37 380.05 C 516.33 377.24 517.46 374.62 518.36 372.01 C 526.33 373.65 529.75 381.84 532.80 388.45 C 534.42 385.34 535.54 382.01 536.65 378.69 C 530.46 375.57 524.91 370.36 523.39 363.36 C 522.57 359.91 523.63 356.42 524.56 353.11 C 527.87 353.71 531.05 355.22 533.56 357.47 C 535.75 360.08 537.35 363.12 539.13 366.02 C 539.67 365.93 540.73 365.75 541.26 365.66 C 541.63 363.38 542.23 361.16 542.74 358.92 C 536.15 356.74 530.06 351.90 528.32 344.95 C 527.40 341.31 528.14 337.60 529.00 334.04 C 536.62 335.58 541.94 341.82 545.30 348.45 C 546.43 345.93 547.71 343.29 547.55 340.46 C 546.38 338.87 544.16 338.53 542.55 337.50 C 534.70 333.72 529.78 324.11 532.75 315.65 C 535.71 316.31 538.78 316.97 541.26 318.85 C 545.07 321.13 547.09 325.24 549.92 328.50 C 550.65 325.90 551.32 323.29 551.79 320.64 C 545.88 318.90 540.03 315.74 536.88 310.24 C 534.30 306.52 534.07 301.85 534.76 297.52 C 537.05 297.53 539.46 297.47 541.57 298.56 C 546.62 300.71 549.23 305.84 553.19 309.35 C 554.14 306.63 554.69 303.79 554.54 300.90 C 547.64 299.91 541.66 295.35 538.61 289.15 C 536.90 285.80 537.42 281.97 537.61 278.36 C 541.24 279.01 545.07 279.69 548.07 282.01 C 550.61 284.25 552.62 287.25 555.92 288.49 C 556.33 286.21 556.51 283.90 556.62 281.59 C 549.44 280.34 542.77 275.75 539.62 269.10 C 538.03 265.94 538.30 262.37 538.70 258.97 C 542.67 259.35 546.86 260.19 549.92 262.95 C 552.33 265.17 554.57 267.59 557.21 269.55 C 557.41 266.74 557.45 263.93 557.42 261.13 C 550.35 260.66 543.80 256.52 540.33 250.36 C 538.81 247.30 538.46 243.83 538.41 240.47 C 546.19 238.51 551.89 244.82 557.36 249.15 C 557.43 246.35 557.48 243.56 557.56 240.77 C 550.29 240.62 543.56 236.36 539.81 230.24 C 537.89 227.03 537.87 223.16 537.77 219.54 C 540.82 219.65 544.04 219.83 546.80 221.24 C 550.18 223.72 552.69 227.27 556.48 229.22 C 556.48 226.35 556.57 223.48 556.66 220.62 C 553.35 219.91 549.95 219.50 546.77 218.34 C 543.63 216.62 541.03 214.02 538.95 211.13 C 536.93 208.35 536.93 204.75 536.43 201.49 C 539.14 201.54 541.96 201.15 544.59 202.05 C 548.26 203.11 551.18 205.70 554.57 207.36 C 554.52 205.26 554.47 203.16 554.48 201.05 C 550.72 200.61 546.75 200.64 543.42 198.60 C 537.77 195.37 532.69 189.48 533.42 182.55 C 536.80 182.52 540.37 182.14 543.56 183.56 C 546.49 184.86 549.09 186.77 551.92 188.25 C 551.73 185.91 551.47 183.58 551.29 181.25 C 545.05 181.11 538.27 179.94 533.89 175.09 C 530.73 172.36 529.20 168.30 529.00 164.20 C 535.93 161.74 542.46 165.65 548.43 168.69 C 548.01 165.95 547.53 163.21 547.36 160.44 C 543.37 160.48 539.20 161.05 535.42 159.44 C 532.37 158.10 529.71 155.99 527.42 153.60 C 524.82 151.02 524.41 147.20 523.53 143.83 C 526.67 143.51 529.90 143.13 533.00 143.92 C 537.05 144.79 540.38 147.40 544.01 149.25 C 543.69 146.27 542.97 143.37 542.19 140.48 C 535.15 141.59 527.75 139.46 522.88 134.15 C 520.04 131.40 519.06 127.48 518.35 123.74 C 522.36 123.48 526.67 122.80 530.43 124.67 C 534.05 126.07 537.24 129.57 541.42 128.21 C 538.61 125.51 534.64 123.85 532.92 120.14 C 530.78 115.86 528.37 110.91 529.99 106.06 C 530.67 103.57 532.03 101.34 533.29 99.10 C 539.17 102.22 543.37 108.36 544.19 114.96 C 544.96 119.32 543.30 123.56 542.22 127.70 C 543.86 127.39 545.94 127.27 546.57 125.38 C 549.57 119.42 554.62 114.68 560.68 111.92 C 561.66 117.96 561.79 124.44 559.11 130.09 C 556.73 134.23 552.18 136.37 548.28 138.80 C 548.88 141.34 549.55 143.86 550.26 146.37 C 554.88 141.10 558.96 134.76 565.99 132.44 C 566.75 138.61 567.10 145.36 563.89 150.94 C 561.18 154.68 556.96 156.87 553.18 159.37 C 553.59 161.83 554.13 164.27 554.66 166.71 C 554.97 166.75 555.59 166.82 555.90 166.85 C 559.58 160.89 564.25 154.89 571.13 152.55 C 571.94 158.76 572.26 165.54 568.98 171.15 C 566.32 175.21 561.71 177.26 557.45 179.22 C 557.72 182.41 558.54 185.51 559.08 188.66 C 562.00 186.22 563.11 182.38 565.91 179.83 C 568.83 177.17 572.36 175.10 576.24 174.19 C 576.44 179.83 576.36 185.83 573.83 191.00 C 570.95 196.13 565.02 197.90 560.20 200.58 C 560.88 203.50 561.44 206.45 561.97 209.40 C 566.85 203.44 572.26 197.11 580.13 195.28 C 580.10 201.56 579.49 208.32 575.53 213.48 C 572.39 217.25 567.71 219.13 563.05 220.23 C 563.00 222.95 563.20 225.66 563.57 228.36 C 568.51 223.20 574.25 218.32 581.58 217.28 C 581.59 223.79 579.93 230.66 575.48 235.59 C 571.89 238.20 567.59 239.53 563.42 240.90 C 563.67 243.44 563.99 245.98 564.37 248.51 C 569.50 243.63 575.05 238.31 582.59 237.92 C 581.72 243.82 581.08 250.28 577.04 255.00 C 573.75 258.66 568.77 260.26 564.00 260.71 C 563.47 263.35 563.48 266.06 563.79 268.74 C 567.04 267.16 569.55 264.49 572.60 262.59 C 575.67 260.80 579.26 260.34 582.68 259.61 C 581.88 266.41 579.58 273.49 574.25 278.10 C 571.27 280.78 566.99 280.21 563.50 281.76 C 561.90 283.68 562.81 286.42 562.67 288.70 C 565.92 286.31 569.02 283.71 572.37 281.45 C 575.24 280.09 578.47 279.74 581.58 279.21 C 580.49 285.14 579.02 291.35 574.94 296.00 C 571.04 299.72 565.51 300.51 560.44 301.47 C 560.46 303.42 560.50 305.37 560.60 307.33 C 564.35 305.63 567.40 302.69 571.25 301.18 C 573.64 300.32 576.22 300.35 578.72 300.06 C 577.61 306.12 575.78 312.75 570.64 316.66 C 567.24 319.67 562.58 320.77 558.13 320.58 C 557.66 322.85 557.54 325.16 557.49 327.47 C 560.08 326.13 562.46 324.43 565.06 323.10 C 568.47 321.28 572.42 321.06 576.19 320.60 C 574.94 327.82 571.29 334.81 564.93 338.75 C 561.54 340.23 557.79 340.52 554.14 340.64 C 553.69 342.85 553.43 345.08 553.14 347.31 C 559.12 344.80 565.13 340.75 571.93 342.08 C 570.71 348.16 567.14 353.58 562.57 357.68 C 558.50 360.23 553.50 360.42 548.84 360.65 C 548.37 363.09 547.82 365.52 547.37 367.97 C 553.54 364.70 560.39 361.95 567.51 363.43 C 564.29 370.56 559.64 379.11 551.04 380.18 C 548.27 380.64 545.46 380.39 542.67 380.29 C 541.78 383.18 540.85 386.06 540.11 389.00 C 546.37 386.47 552.98 384.21 559.81 385.77 C 558.23 390.90 554.58 395.13 550.64 398.65 C 546.16 402.46 539.91 401.66 534.48 401.25 C 533.88 403.27 533.34 405.30 532.90 407.36 C 537.24 406.29 541.39 403.98 545.99 404.30 C 548.31 404.31 550.64 404.51 552.95 404.85 C 549.90 410.16 546.68 415.92 541.13 418.98 C 536.65 421.07 531.55 420.31 526.87 419.40 C 519.59 432.79 512.97 446.58 504.30 459.18 C 496.87 471.49 487.68 482.59 478.85 493.89 C 473.67 500.64 467.30 506.31 461.94 512.90 C 454.81 520.79 446.77 527.75 439.03 535.02 C 434.47 540.26 428.45 543.84 423.34 548.48 C 417.75 553.31 411.72 557.62 405.57 561.71 C 395.67 569.01 385.48 575.93 374.74 581.93 C 362.18 589.78 348.53 595.60 335.40 602.40 C 335.41 602.84 335.43 603.73 335.43 604.17 C 358.78 612.59 382.61 619.88 407.00 624.58 C 406.76 626.39 406.52 628.20 406.30 630.02 C 383.27 625.54 360.65 619.11 338.60 611.13 C 334.36 609.75 330.38 607.56 326.03 606.55 C 312.23 611.85 298.46 617.32 284.31 621.64 C 269.02 626.51 253.41 630.27 237.75 633.70 C 237.22 631.70 236.66 629.71 236.17 627.71 C 241.63 625.89 247.36 625.08 252.94 623.75 C 262.79 621.26 272.65 618.77 282.29 615.55 C 292.76 612.87 302.74 608.73 312.83 604.94 C 314.31 604.47 315.49 603.47 316.50 602.34 C 284.17 588.53 253.51 570.76 225.71 549.22 C 220.04 544.21 213.53 540.18 208.38 534.58 C 198.71 526.64 190.49 517.15 181.36 508.63 C 174.42 502.17 169.01 494.37 162.58 487.46 C 151.86 473.87 141.86 459.72 132.96 444.88 C 127.53 435.45 122.51 425.79 117.36 416.21 C 111.88 417.80 105.55 417.98 100.76 414.45 C 96.59 411.25 93.06 406.82 91.82 401.64 C 98.84 400.40 105.75 402.19 112.11 405.11 C 111.50 402.75 110.68 400.45 109.79 398.19 C 104.51 398.41 98.46 399.69 93.97 396.09 C 89.93 392.40 85.84 388.35 84.00 383.06 C 90.89 380.98 97.81 383.56 104.17 386.13 C 103.65 383.12 102.79 380.19 101.80 377.31 C 95.75 377.87 88.60 377.67 84.38 372.60 C 80.44 369.41 78.68 364.58 76.43 360.22 C 83.82 358.73 90.68 362.09 97.10 365.25 C 96.61 362.66 95.99 360.10 95.41 357.53 C 91.05 357.63 86.63 357.07 82.57 355.45 C 77.24 351.55 73.36 345.70 72.14 339.18 C 79.20 337.97 85.66 341.64 91.61 344.88 C 91.19 342.48 90.63 340.11 90.17 337.73 C 85.94 337.68 81.58 337.11 77.81 335.11 C 72.18 331.02 69.12 324.39 67.87 317.70 C 71.03 318.11 74.35 318.10 77.27 319.52 C 80.58 321.10 83.60 323.22 87.03 324.56 C 86.74 322.26 86.35 319.97 85.92 317.70 C 80.81 317.47 75.10 316.51 71.53 312.49 C 68.28 307.94 66.04 302.60 65.23 297.05 C 67.45 297.28 69.70 297.40 71.89 297.85 C 76.29 299.10 79.38 302.79 83.61 304.39 C 83.56 302.35 83.47 300.32 83.40 298.29 C 78.72 297.12 73.28 297.09 69.74 293.33 C 64.92 288.98 63.77 282.34 62.38 276.33 C 66.38 276.84 70.86 277.11 73.98 279.98 C 76.52 282.13 78.96 284.41 81.67 286.35 C 81.62 283.76 81.42 281.17 81.36 278.58 C 78.08 278.05 74.60 277.89 71.60 276.33 C 64.92 272.04 62.13 263.95 61.27 256.42 C 64.71 257.34 68.43 257.66 71.52 259.59 C 74.76 261.48 77.25 264.36 80.33 266.47 C 80.46 263.59 80.38 260.71 80.31 257.84 C 74.06 257.45 67.42 254.28 64.65 248.40 C 62.69 244.14 61.82 239.47 61.36 234.83 C 69.24 235.33 75.06 240.99 80.12 246.44 C 80.35 243.54 80.37 240.63 80.41 237.73 C 76.34 236.34 71.71 235.66 68.58 232.44 C 63.90 227.64 62.51 220.62 62.34 214.15 C 65.39 215.13 68.61 215.84 71.30 217.65 C 74.85 219.98 77.42 223.51 81.12 225.65 C 81.43 222.84 81.44 220.02 81.45 217.21 C 75.67 215.84 69.10 213.32 66.51 207.51 C 64.19 202.78 64.15 197.38 63.78 192.24 C 66.62 193.21 69.56 194.10 72.04 195.87 C 76.42 198.77 79.01 203.48 82.31 207.43 C 83.19 203.94 83.60 200.37 83.70 196.78 C 78.30 195.06 72.50 192.49 69.85 187.13 C 67.63 182.16 67.28 176.56 67.68 171.19 C 71.88 171.46 74.76 174.64 77.88 177.04 C 80.83 179.36 82.71 182.65 84.24 186.00 C 84.52 185.88 85.06 185.65 85.34 185.53 C 86.17 182.53 86.51 179.43 86.80 176.34 C 81.69 174.74 77.24 171.34 74.32 166.87 C 71.59 161.50 72.35 155.22 72.83 149.43 C 76.61 150.43 79.41 153.15 82.15 155.75 C 85.19 158.36 86.44 162.32 88.90 165.41 C 89.91 162.26 90.71 159.03 90.79 155.72 C 85.95 153.81 80.87 150.79 79.22 145.52 C 77.02 140.52 77.11 134.92 77.99 129.62 C 85.29 131.87 89.75 138.43 93.96 144.34 C 94.47 141.46 96.08 138.56 95.55 135.60 C 92.45 133.27 88.29 132.23 86.05 128.85 C 82.26 123.12 82.25 115.86 83.05 109.28 C 90.22 111.68 95.56 117.59 98.33 124.50 C 99.56 124.57 100.79 124.65 102.01 124.74 C 101.03 120.87 99.11 117.05 99.53 112.97 C 100.18 109.73 101.15 106.51 102.69 103.57 Z" />
<path fill="#1d0f07" d=" M 335.64 97.32 C 336.21 97.26 337.35 97.13 337.92 97.07 C 338.12 99.65 338.99 102.41 337.76 104.87 C 336.74 108.12 335.85 111.68 332.48 113.27 C 331.68 112.42 330.87 111.58 330.07 110.74 C 333.85 107.35 333.80 101.78 335.64 97.32 Z" />
<path fill="#3f1901" d=" M 339.07 107.10 C 340.07 106.71 341.08 106.31 342.09 105.93 C 342.00 108.12 341.91 110.32 341.75 112.52 C 341.08 112.63 339.74 112.86 339.06 112.98 C 339.09 111.02 339.06 109.06 339.07 107.10 Z" />
<path fill="#e0d38f" d=" M 314.78 113.67 C 314.60 112.74 314.43 111.80 314.22 110.87 C 315.91 111.82 317.55 112.88 319.19 113.92 C 319.15 114.88 319.07 116.80 319.02 117.76 C 316.77 117.56 315.46 115.62 314.78 113.67 Z" />
<path fill="#f2e9a1" d=" M 351.28 111.60 C 352.69 112.57 355.39 113.58 354.69 115.77 C 353.54 118.40 353.03 121.41 351.06 123.60 C 351.03 122.75 350.96 121.06 350.93 120.21 C 350.95 118.81 350.99 117.42 351.04 116.02 C 351.09 114.54 351.17 113.07 351.28 111.60 Z" />
<path fill="#423f11" d=" M 346.22 115.33 C 347.10 114.97 347.98 114.60 348.87 114.24 C 349.59 114.84 350.31 115.43 351.04 116.02 C 350.99 117.42 350.95 118.81 350.93 120.21 C 350.26 119.30 349.61 118.39 348.97 117.47 C 348.64 116.99 347.99 116.03 347.67 115.55 C 347.29 116.46 346.93 117.38 346.60 118.31 C 346.50 117.56 346.32 116.08 346.22 115.33 Z" />
<path fill="#f5f47d" d=" M 309.77 115.98 C 310.90 116.33 312.05 116.66 313.17 117.07 C 315.24 118.13 316.91 119.90 318.26 121.78 C 314.12 122.72 311.14 119.50 309.77 115.98 Z" />
<path fill="#fcfcfa" d=" M 346.60 118.31 C 346.93 117.38 347.29 116.46 347.67 115.55 C 347.99 116.03 348.64 116.99 348.97 117.47 C 348.13 119.47 348.34 122.17 346.34 123.48 C 346.32 121.75 346.20 120.00 346.60 118.31 Z" />
<path fill="#ffef13" d=" M 236.06 128.86 C 237.06 129.11 238.07 129.37 239.08 129.63 C 238.92 134.54 238.93 139.44 238.60 144.34 C 238.15 151.24 239.10 158.12 239.23 165.02 C 239.39 173.12 239.56 181.24 240.28 189.32 C 245.61 176.09 249.15 162.25 253.75 148.76 C 256.03 142.42 257.32 135.70 260.58 129.73 C 262.64 129.75 264.70 129.75 266.77 129.76 C 266.59 132.58 265.99 135.35 265.10 138.02 C 261.88 147.85 258.59 157.66 255.50 167.53 C 253.78 172.71 251.93 177.87 250.87 183.24 C 259.97 172.18 266.39 159.28 274.49 147.52 C 278.61 141.62 281.19 134.54 286.63 129.63 C 288.08 129.37 289.57 129.42 291.04 129.40 C 291.91 130.26 292.78 131.12 293.65 131.98 C 281.55 151.40 268.56 170.26 256.79 189.88 C 261.27 185.31 266.52 181.48 270.30 176.26 C 277.73 167.40 285.61 158.93 293.24 150.24 C 298.96 143.14 305.58 136.81 311.10 129.55 C 314.10 129.46 317.09 129.47 320.09 129.54 C 318.67 133.62 315.16 136.28 312.46 139.46 C 299.03 154.69 285.54 169.88 272.21 185.19 C 270.55 187.05 269.01 189.02 267.66 191.12 C 288.26 173.31 307.53 154.04 327.57 135.60 C 329.61 133.74 331.55 131.77 333.39 129.72 C 328.96 129.42 324.52 129.64 320.09 129.54 L 319.98 129.53 C 324.64 129.20 329.33 129.74 333.98 129.17 C 337.48 128.80 341.14 127.91 344.55 129.23 C 341.23 133.33 337.40 136.97 333.47 140.48 C 322.26 151.27 310.77 161.77 299.64 172.64 C 292.36 179.80 284.50 186.40 277.76 194.09 C 286.64 188.02 294.81 180.94 303.11 174.11 C 313.63 166.02 323.53 157.16 333.99 148.99 C 341.76 142.38 349.93 136.25 357.57 129.48 C 363.00 128.69 368.53 129.60 374.00 129.28 C 381.27 129.59 388.53 128.28 395.78 129.25 C 394.22 131.18 392.51 133.03 390.39 134.35 C 380.26 140.80 370.75 148.18 360.55 154.52 C 351.01 160.94 341.93 168.05 332.21 174.19 C 325.88 176.33 319.78 179.29 313.26 180.76 C 314.48 179.47 315.63 178.10 317.02 176.99 C 333.71 165.40 350.18 153.49 366.79 141.78 C 372.18 137.61 378.16 134.25 383.35 129.83 C 378.69 129.53 373.87 128.78 369.28 129.86 C 347.64 146.98 326.52 164.77 304.99 182.02 C 300.26 185.60 295.84 189.55 291.39 193.45 C 284.44 199.49 276.85 204.79 270.43 211.42 C 265.95 215.09 262.63 219.88 258.58 223.96 L 257.80 224.05 C 256.66 223.99 255.52 224.02 254.39 224.14 C 242.94 223.56 231.56 220.86 220.04 221.17 C 214.69 221.72 209.31 221.68 203.94 221.96 C 191.71 223.35 179.66 226.19 168.14 230.52 C 158.50 232.44 148.53 232.22 138.76 233.28 C 138.73 232.74 138.67 231.65 138.64 231.11 C 138.60 230.24 138.51 228.52 138.47 227.65 C 144.85 225.74 151.55 226.08 158.08 225.14 C 166.00 223.96 174.01 223.54 181.96 222.64 C 187.42 221.96 193.00 222.14 198.35 220.73 C 186.87 219.98 175.49 218.08 163.96 217.90 C 154.84 216.92 145.70 216.06 136.53 215.71 L 136.52 214.92 C 136.49 212.59 136.51 210.27 136.56 207.95 C 153.13 209.68 169.77 210.49 186.39 211.63 C 189.39 211.82 192.41 211.92 195.42 211.86 C 188.43 209.36 181.12 207.94 173.96 206.07 C 171.84 205.57 169.89 204.57 168.05 203.42 C 170.87 202.01 173.92 201.14 177.01 200.58 C 182.11 200.05 186.98 201.96 191.88 203.05 C 198.06 204.48 204.16 206.35 210.46 207.19 C 204.55 202.09 197.18 199.10 191.20 194.10 C 193.65 192.45 196.13 190.82 198.75 189.44 C 205.18 195.52 213.36 199.19 221.10 203.27 C 217.32 195.71 210.73 189.99 207.20 182.30 C 208.81 180.56 210.47 178.86 212.16 177.20 C 215.83 182.70 219.57 188.18 224.05 193.08 C 223.24 185.03 220.20 177.50 217.91 169.82 C 219.85 167.41 221.50 164.80 223.34 162.31 C 226.63 172.20 228.88 182.43 232.74 192.13 C 232.55 186.92 232.53 181.70 232.31 176.48 C 231.71 166.53 232.26 156.53 231.06 146.61 C 230.88 144.49 231.99 142.57 232.54 140.58 C 233.85 136.71 233.91 132.44 236.06 128.86 Z" />
<path fill="#8ec3e6" d=" M 291.04 129.40 C 300.68 130.02 310.35 129.00 319.98 129.53 L 320.09 129.54 C 317.09 129.47 314.10 129.46 311.10 129.55 C 305.58 136.81 298.96 143.14 293.24 150.24 C 285.61 158.93 277.73 167.40 270.30 176.26 C 266.52 181.48 261.27 185.31 256.79 189.88 C 268.56 170.26 281.55 151.40 293.65 131.98 C 292.78 131.12 291.91 130.26 291.04 129.40 Z" />
<path fill="#8ec3e6" d=" M 344.55 129.23 C 348.89 129.38 353.23 129.18 357.57 129.48 C 349.93 136.25 341.76 142.38 333.99 148.99 C 323.53 157.16 313.63 166.02 303.11 174.11 C 294.81 180.94 286.64 188.02 277.76 194.09 C 284.50 186.40 292.36 179.80 299.64 172.64 C 310.77 161.77 322.26 151.27 333.47 140.48 C 337.40 136.97 341.23 133.33 344.55 129.23 Z" />
<path fill="#8ec3e6" d=" M 395.78 129.25 C 400.40 128.67 405.10 128.70 409.73 129.23 C 409.91 130.79 410.07 132.36 410.23 133.93 C 396.13 142.17 382.16 150.62 368.27 159.19 C 362.69 162.67 356.53 165.29 351.63 169.76 C 345.29 171.67 338.66 172.67 332.21 174.19 C 341.93 168.05 351.01 160.94 360.55 154.52 C 370.75 148.18 380.26 140.80 390.39 134.35 C 392.51 133.03 394.22 131.18 395.78 129.25 Z" />
<path fill="#8ec3e6" d=" M 239.08 129.63 C 246.24 129.63 253.41 129.72 260.58 129.73 C 257.32 135.70 256.03 142.42 253.75 148.76 C 249.15 162.25 245.61 176.09 240.28 189.32 C 239.56 181.24 239.39 173.12 239.23 165.02 C 239.10 158.12 238.15 151.24 238.60 144.34 C 238.93 139.44 238.92 134.54 239.08 129.63 Z" />
<path fill="#8ec3e6" d=" M 266.77 129.76 C 273.39 129.64 280.01 129.64 286.63 129.63 C 281.19 134.54 278.61 141.62 274.49 147.52 C 266.39 159.28 259.97 172.18 250.87 183.24 C 251.93 177.87 253.78 172.71 255.50 167.53 C 258.59 157.66 261.88 147.85 265.10 138.02 C 265.99 135.35 266.59 132.58 266.77 129.76 Z" />
<path fill="#8ec3e6" d=" M 320.09 129.54 C 324.52 129.64 328.96 129.42 333.39 129.72 C 331.55 131.77 329.61 133.74 327.57 135.60 C 307.53 154.04 288.26 173.31 267.66 191.12 C 269.01 189.02 270.55 187.05 272.21 185.19 C 285.54 169.88 299.03 154.69 312.46 139.46 C 315.16 136.28 318.67 133.62 320.09 129.54 Z" />
<path fill="#8ec3e6" d=" M 304.99 182.02 C 326.52 164.77 347.64 146.98 369.28 129.86 C 373.87 128.78 378.69 129.53 383.35 129.83 C 378.16 134.25 372.18 137.61 366.79 141.78 C 350.18 153.49 333.71 165.40 317.02 176.99 C 315.63 178.10 314.48 179.47 313.26 180.76 C 306.16 185.28 298.44 188.81 291.39 193.45 C 295.84 189.55 300.26 185.60 304.99 182.02 Z" />
<path fill="#ffef13" d=" M 368.27 159.19 C 382.16 150.62 396.13 142.17 410.23 133.93 C 411.16 137.29 411.98 140.69 412.70 144.10 C 412.21 143.21 411.70 142.33 411.19 141.45 C 402.49 146.61 393.98 152.08 385.23 157.16 C 378.83 160.86 372.87 165.46 365.85 167.95 C 361.20 169.07 356.39 169.50 351.63 169.76 C 356.53 165.29 362.69 162.67 368.27 159.19 Z" />
<path fill="#8ec3e6" d=" M 385.23 157.16 C 393.98 152.08 402.49 146.61 411.19 141.45 C 411.70 142.33 412.21 143.21 412.70 144.10 C 414.03 146.76 414.88 149.61 415.99 152.35 C 410.37 155.50 405.22 159.39 399.80 162.86 C 397.79 164.07 396.28 165.88 395.06 167.85 C 385.33 168.23 375.58 167.39 365.85 167.95 C 372.87 165.46 378.83 160.86 385.23 157.16 Z" />
<path fill="#8ec3e6" d=" M 223.34 162.31 C 226.06 157.15 228.04 151.61 231.06 146.61 C 232.26 156.53 231.71 166.53 232.31 176.48 C 232.53 181.70 232.55 186.92 232.74 192.13 C 228.88 182.43 226.63 172.20 223.34 162.31 Z" />
<path fill="#ffef14" d=" M 399.80 162.86 C 405.22 159.39 410.37 155.50 415.99 152.35 C 417.06 154.44 418.08 156.55 419.03 158.70 C 412.87 162.15 407.71 168.90 400.03 168.38 C 398.37 168.23 396.71 168.06 395.06 167.85 C 396.28 165.88 397.79 164.07 399.80 162.86 Z" />
<path fill="#8ec3e5" d=" M 400.03 168.38 C 407.71 168.90 412.87 162.15 419.03 158.70 C 421.66 162.92 424.52 167.00 427.38 171.07 C 418.18 171.20 409.20 168.73 400.03 168.38 Z" />
<path fill="#0a654a" d=" M 336.90 174.67 C 347.98 171.44 359.47 170.00 370.95 169.04 C 385.12 168.85 399.38 168.93 413.39 171.33 C 418.76 172.26 424.31 172.01 429.60 173.39 C 433.79 176.32 436.87 180.56 440.41 184.20 C 352.79 237.88 265.21 291.64 177.69 345.47 C 176.09 344.76 174.70 343.64 174.02 341.99 C 168.60 330.91 163.30 319.77 158.59 308.36 C 152.62 292.65 147.55 276.60 143.63 260.24 C 142.76 256.24 141.28 252.31 141.18 248.18 C 144.37 243.81 149.82 241.99 154.26 239.18 C 170.33 229.18 189.23 224.52 207.98 223.31 C 219.25 223.10 230.62 222.26 241.79 224.25 C 247.46 224.65 252.98 226.22 258.62 226.64 C 263.28 221.33 267.82 215.87 273.14 211.18 C 282.67 202.55 292.14 193.44 303.86 187.82 C 307.96 185.93 311.57 183.03 315.93 181.73 C 323.02 179.66 329.57 175.99 336.90 174.67 Z" />
<path fill="#8ec3e5" d=" M 212.16 177.20 C 214.01 174.68 215.89 172.20 217.91 169.82 C 220.20 177.50 223.24 185.03 224.05 193.08 C 219.57 188.18 215.83 182.70 212.16 177.20 Z" />
<path fill="#8ec3e5" d=" M 198.75 189.44 C 201.58 187.08 204.48 184.80 207.20 182.30 C 210.73 189.99 217.32 195.71 221.10 203.27 C 213.36 199.19 205.18 195.52 198.75 189.44 Z" />
<path fill="#fefefe" d=" M 440.41 184.20 C 454.69 195.89 472.47 203.14 490.78 205.20 C 497.79 206.30 504.90 205.78 511.96 205.84 C 510.61 216.09 509.62 226.40 507.76 236.58 C 474.87 256.32 442.36 276.69 409.57 296.60 C 372.63 319.34 335.65 342.00 298.68 364.70 C 273.62 380.03 248.69 395.59 223.51 410.72 C 205.63 390.96 189.76 369.32 176.99 345.91 L 177.69 345.47 C 265.21 291.64 352.79 237.88 440.41 184.20 Z" />
<path fill="#8ec3e5" d=" M 177.01 200.58 C 181.82 198.60 186.65 196.65 191.20 194.10 C 197.18 199.10 204.55 202.09 210.46 207.19 C 204.16 206.35 198.06 204.48 191.88 203.05 C 186.98 201.96 182.11 200.05 177.01 200.58 Z" />
<path fill="#8ec3e5" d=" M 167.64 203.17 L 168.05 203.42 C 169.89 204.57 171.84 205.57 173.96 206.07 C 181.12 207.94 188.43 209.36 195.42 211.86 C 192.41 211.92 189.39 211.82 186.39 211.63 C 169.77 210.49 153.13 209.68 136.56 207.95 C 136.51 210.27 136.49 212.59 136.52 214.92 C 135.97 211.92 135.86 208.86 135.82 205.83 C 146.50 206.28 157.18 205.38 167.64 203.17 Z" />
<path fill="#0a0909" d=" M 449.22 211.05 C 453.46 208.31 457.82 205.74 462.11 203.07 C 462.95 204.48 463.80 205.90 464.65 207.31 C 462.09 209.12 459.39 210.73 456.70 212.33 C 457.72 214.18 458.81 216.01 459.89 217.84 C 462.45 216.37 464.96 214.83 467.47 213.28 C 468.25 214.63 469.06 215.97 469.88 217.31 C 467.48 218.98 464.98 220.51 462.50 222.07 C 463.75 224.33 465.06 226.57 466.61 228.66 C 469.24 226.91 471.90 225.20 474.70 223.72 C 475.56 225.15 476.43 226.59 477.28 228.03 C 472.96 230.68 468.70 233.43 464.30 235.95 C 459.21 227.69 454.38 219.27 449.22 211.05 Z" />
<path fill="#8ec3e6" d=" M 136.53 215.71 C 145.70 216.06 154.84 216.92 163.96 217.90 C 175.49 218.08 186.87 219.98 198.35 220.73 C 193.00 222.14 187.42 221.96 181.96 222.64 C 174.01 223.54 166.00 223.96 158.08 225.14 C 151.55 226.08 144.85 225.74 138.47 227.65 C 138.51 228.52 138.60 230.24 138.64 231.11 C 137.76 226.00 136.95 220.87 136.53 215.71 Z" />
<path fill="#0a0909" d=" M 430.15 222.82 C 434.13 220.61 437.74 217.43 442.19 216.22 C 447.90 215.63 450.74 221.65 453.30 225.70 C 455.47 229.83 459.17 234.87 456.69 239.61 C 453.59 243.24 449.12 245.27 445.17 247.81 C 440.07 239.53 435.13 231.16 430.15 222.82 Z" />
<path fill="#fcfcfa" d=" M 437.08 223.65 C 439.21 222.47 442.09 220.32 444.21 222.73 C 447.97 226.99 451.04 232.17 452.23 237.78 C 450.72 238.94 449.20 240.07 447.67 241.20 C 444.00 235.43 440.55 229.53 437.08 223.65 Z" />
<path fill="#c3d596" d=" M 254.39 224.14 C 255.52 224.02 256.66 223.99 257.80 224.05 C 258.37 225.94 254.08 225.91 254.39 224.14 Z" />
<path fill="#0b0a09" d=" M 413.98 232.80 C 418.19 230.11 422.46 227.50 426.74 224.91 C 427.61 226.32 428.49 227.72 429.36 229.13 C 426.78 230.92 424.08 232.51 421.42 234.15 C 422.48 236.01 423.56 237.86 424.71 239.67 C 427.20 238.16 429.68 236.63 432.13 235.05 C 432.96 236.42 433.75 237.81 434.59 239.19 C 432.14 240.80 429.61 242.28 427.15 243.87 C 428.45 246.08 429.81 248.26 431.21 250.42 C 433.93 248.79 436.61 247.07 439.30 245.37 C 439.91 246.88 442.03 248.24 441.39 249.97 C 437.46 252.85 433.13 255.12 429.09 257.84 C 424.04 249.51 419.01 241.15 413.98 232.80 Z" />
<path fill="#8ec3e6" d=" M 138.76 233.28 C 148.53 232.22 158.50 232.44 168.14 230.52 C 158.48 234.14 149.79 239.79 141.09 245.23 C 140.08 241.30 139.31 237.30 138.76 233.28 Z" />
<path fill="#0a0a09" d=" M 403.02 239.53 C 405.37 238.14 407.70 236.71 409.97 235.18 C 415.00 243.41 420.01 251.66 424.86 259.99 C 423.98 261.57 421.89 262.02 420.45 263.02 C 416.55 256.62 413.00 249.98 408.84 243.74 C 410.73 251.29 414.05 258.40 416.20 265.87 C 415.18 266.41 414.15 266.91 413.10 267.37 C 407.53 261.72 402.53 255.53 396.87 249.97 C 400.70 256.83 404.96 263.44 409.05 270.14 C 407.49 271.09 405.95 272.03 404.38 272.95 C 399.48 264.59 394.29 256.39 389.51 247.96 C 391.83 246.45 394.17 244.97 396.65 243.73 C 400.66 248.27 404.87 252.63 408.99 257.08 C 407.13 251.19 404.87 245.43 403.02 239.53 Z" />
<path fill="#0a654a" d=" M 409.57 296.60 C 442.36 276.69 474.87 256.32 507.76 236.58 C 507.32 248.89 503.36 260.67 500.73 272.61 C 496.30 291.38 489.56 309.46 482.34 327.31 C 479.61 335.11 475.19 342.14 471.52 349.51 C 456.49 377.85 436.99 403.69 414.61 426.62 C 404.36 436.43 393.45 445.53 382.24 454.24 C 374.17 461.04 364.97 466.28 356.34 472.33 C 346.63 478.29 336.85 484.19 326.87 489.71 C 313.39 482.22 300.11 474.34 287.30 465.75 C 276.06 458.95 266.13 450.27 255.80 442.21 C 248.67 436.38 242.03 429.98 235.58 423.42 C 231.52 419.22 227.07 415.38 223.51 410.72 C 248.69 395.59 273.62 380.03 298.68 364.70 C 335.65 342.00 372.63 319.34 409.57 296.60 Z" />
<path fill="#0b0909" d=" M 375.29 256.65 C 377.38 255.33 379.47 254.01 381.65 252.84 C 388.50 259.98 395.39 267.08 402.22 274.25 C 400.55 275.38 398.86 276.49 397.15 277.56 C 395.43 275.76 393.83 273.87 392.17 272.03 C 390.46 273.05 388.75 274.06 387.04 275.06 C 387.96 277.41 388.82 279.78 389.67 282.16 C 388.04 283.16 386.38 284.12 384.72 285.06 C 381.63 275.57 378.45 266.11 375.29 256.65 Z" />
<path fill="#fcfcfa" d=" M 381.86 260.64 C 384.43 263.18 386.76 265.96 389.18 268.64 C 387.92 269.28 386.68 269.93 385.44 270.60 C 384.20 267.30 382.82 264.04 381.86 260.64 Z" />
<path fill="#0a0a09" d=" M 360.89 266.13 C 362.29 263.80 365.50 263.05 367.72 261.53 C 372.66 269.81 377.62 278.08 382.62 286.32 C 381.11 287.33 379.59 288.32 378.03 289.26 C 374.04 282.48 370.06 275.68 365.94 268.97 C 368.32 276.68 371.23 284.21 373.83 291.85 C 372.85 292.47 371.89 293.10 370.92 293.73 C 365.45 288.19 360.44 282.20 354.86 276.77 C 358.47 283.42 362.67 289.74 366.48 296.28 C 365.00 297.28 363.51 298.25 362.01 299.22 C 356.96 290.88 351.95 282.51 346.94 274.14 C 349.26 272.65 351.65 271.28 354.02 269.86 C 358.24 273.99 361.81 278.76 366.30 282.62 C 364.74 277.05 362.27 271.75 360.89 266.13 Z" />
<path fill="#0a0909" d=" M 318.77 290.77 C 323.04 287.00 329.49 289.51 331.33 294.55 C 329.88 295.41 328.44 296.26 327.00 297.12 C 325.62 295.96 324.49 293.18 322.31 294.15 C 321.40 294.74 320.52 295.36 319.67 296.02 C 320.11 297.00 320.60 297.96 321.13 298.90 C 325.55 301.12 331.04 298.94 335.32 301.68 C 337.79 303.31 339.36 306.19 339.80 309.08 C 339.81 315.17 332.10 320.19 326.62 317.36 C 324.63 316.01 323.27 313.95 322.05 311.93 C 323.30 310.54 325.05 309.76 326.62 308.79 C 327.91 310.52 329.23 312.23 330.83 313.70 C 333.47 312.86 335.46 310.12 333.43 307.60 C 329.90 304.71 324.91 306.55 320.84 305.10 C 314.57 303.66 312.75 293.84 318.77 290.77 Z" />
<path fill="#0a0a0b" d=" M 342.93 304.33 C 344.26 303.61 345.57 302.84 346.96 302.24 C 348.46 303.25 348.98 305.25 349.99 306.71 C 348.45 307.55 346.92 308.41 345.37 309.21 C 344.53 307.59 343.71 305.97 342.93 304.33 Z" />
<path fill="#0a0909" d=" M 290.68 308.70 C 293.04 305.93 296.98 304.06 300.58 305.47 C 302.92 306.30 304.15 308.56 305.33 310.58 C 303.90 311.44 302.46 312.30 301.01 313.14 C 299.64 311.96 298.56 309.24 296.37 310.12 C 295.42 310.78 294.50 311.48 293.61 312.22 C 295.03 317.25 301.04 315.72 304.97 316.30 C 311.37 316.31 316.39 324.90 312.15 330.09 C 309.61 333.06 305.19 335.41 301.30 333.74 C 298.76 332.60 297.46 329.99 295.93 327.83 C 297.48 326.79 299.04 325.77 300.62 324.78 C 302.23 326.23 303.09 329.93 305.78 329.07 C 309.03 328.61 309.02 323.74 306.17 322.73 C 302.59 321.33 298.60 322.30 294.95 321.17 C 289.81 320.03 286.97 312.70 290.68 308.70 Z" />
<path fill="#0a0909" d=" M 272.79 319.92 C 274.85 318.61 276.93 317.34 279.02 316.07 C 285.89 323.26 292.93 330.31 299.59 337.71 C 297.88 338.74 296.17 339.79 294.45 340.81 C 292.87 338.95 291.26 337.11 289.68 335.26 C 287.94 336.36 286.20 337.48 284.50 338.64 C 285.36 340.74 286.30 342.82 286.92 345.00 C 286.08 346.74 283.80 347.24 282.29 348.31 C 278.95 338.90 275.91 329.40 272.79 319.92 Z" />
<path fill="#fcfcfa" d=" M 278.94 323.19 C 281.47 326.03 283.95 328.91 286.45 331.78 C 285.29 332.53 284.14 333.29 282.98 334.04 C 281.55 330.45 280.16 326.85 278.94 323.19 Z" />
<path fill="#0a0908" d=" M 260.30 327.71 C 261.90 326.70 263.50 325.71 265.11 324.72 C 269.97 333.16 275.17 341.39 280.11 349.78 C 278.51 350.75 276.89 351.69 275.24 352.58 C 270.24 344.30 265.33 335.97 260.30 327.71 Z" />
<path fill="#0a0909" d=" M 251.72 333.02 C 253.22 332.03 254.73 331.05 256.22 330.05 C 259.66 335.55 263.00 341.12 266.35 346.67 C 267.73 349.13 269.56 351.81 268.81 354.78 C 267.36 358.99 263.16 361.63 258.99 362.54 C 254.44 362.86 252.06 358.28 250.02 354.98 C 247.14 349.93 243.85 345.12 241.10 340.00 C 241.94 338.32 244.15 337.86 245.63 336.83 C 249.34 342.67 252.62 348.78 256.40 354.58 C 257.34 356.26 259.52 358.01 261.40 356.58 C 264.07 355.78 263.40 352.51 262.24 350.72 C 258.83 344.76 255.11 338.98 251.72 333.02 Z" />
<path fill="#0b0909" d=" M 224.39 351.41 C 225.88 347.46 229.98 344.98 234.01 344.32 C 237.67 344.00 240.08 347.29 241.97 349.93 C 240.55 350.84 239.12 351.76 237.72 352.71 C 236.10 351.00 233.92 348.19 231.35 350.02 C 228.38 351.77 230.19 355.34 231.46 357.59 C 233.67 361.27 235.54 365.36 238.78 368.29 C 240.70 370.13 243.59 368.11 244.04 365.92 C 243.71 363.96 242.76 362.18 242.00 360.37 C 240.78 360.94 239.56 361.54 238.33 362.11 C 237.59 360.78 236.85 359.46 236.09 358.15 C 238.62 356.48 241.16 354.81 243.84 353.38 C 246.63 357.89 249.29 362.48 252.09 366.99 C 251.04 367.66 249.98 368.33 248.93 369.00 C 248.39 368.41 247.85 367.82 247.32 367.23 C 247.10 371.11 243.66 373.92 239.98 374.39 C 234.85 374.28 232.04 369.29 229.45 365.56 C 227.01 361.25 223.32 356.66 224.39 351.41 Z" />
<path fill="#0b0a09" d=" M 207.20 351.15 C 208.57 350.29 210.02 349.57 211.43 348.79 C 210.57 352.02 210.38 355.77 207.56 358.04 C 207.18 355.76 207.15 353.45 207.20 351.15 Z" />
<path fill="#0b0a09" d=" M 207.68 360.11 C 209.73 358.82 211.79 357.55 213.83 356.26 C 220.74 363.43 227.61 370.63 234.45 377.86 C 232.78 378.91 231.11 379.95 229.42 380.96 C 227.72 379.14 225.99 377.35 224.25 375.57 C 222.64 376.63 221.01 377.66 219.38 378.71 C 220.23 381.05 221.07 383.40 221.87 385.77 C 220.28 386.72 218.69 387.66 217.08 388.58 C 213.95 379.09 210.59 369.67 207.68 360.11 Z" />
<path fill="#fcfcfa" d=" M 213.93 363.82 C 216.24 366.33 218.61 368.78 220.86 371.34 C 220.96 373.04 218.84 373.41 217.86 374.37 C 216.45 370.89 215.10 367.39 213.93 363.82 Z" />
<path fill="#1e5a47" d=" M 316.44 386.59 C 326.43 385.10 336.47 388.80 344.66 394.35 C 347.40 396.60 349.56 399.45 352.14 401.86 C 355.15 404.85 358.79 407.55 360.32 411.66 C 362.48 417.33 361.87 423.52 362.66 429.43 C 363.75 435.43 359.62 440.43 358.08 445.93 C 356.85 450.78 353.43 454.53 350.20 458.16 C 348.02 460.22 344.96 460.90 342.46 462.48 C 338.69 464.46 335.55 468.01 331.05 468.20 C 325.27 468.61 319.27 469.95 313.59 468.36 C 309.87 466.27 306.08 464.34 302.12 462.76 C 295.38 458.04 288.72 452.49 285.18 444.86 C 281.70 436.06 282.02 426.43 283.32 417.23 C 283.36 410.24 287.98 404.33 293.15 400.09 C 295.78 397.91 297.88 395.06 300.98 393.49 C 305.97 390.88 310.86 387.79 316.44 386.59 Z" />
<path fill="#191715" d=" M 316.39 390.54 C 327.33 388.99 339.30 391.81 347.40 399.60 C 361.44 411.30 364.63 434.01 353.90 448.92 C 349.09 456.57 341.19 461.94 332.56 464.38 C 320.81 468.00 307.43 464.70 298.18 456.79 C 292.36 451.26 287.22 444.48 285.60 436.45 C 283.91 426.43 285.08 415.53 291.10 407.07 C 296.54 398.09 306.19 392.38 316.39 390.54 Z" />
<path fill="#fcf263" d=" M 324.02 402.08 C 327.40 400.01 330.54 397.48 334.21 395.94 C 338.76 396.33 342.27 399.74 346.01 402.04 C 346.03 406.99 346.09 411.94 346.05 416.89 C 344.84 417.47 343.61 417.98 342.38 418.50 C 344.13 413.94 345.95 408.67 344.05 403.88 C 341.66 400.97 338.03 398.64 334.21 398.33 C 331.07 399.50 328.16 401.55 326.08 404.19 C 324.77 407.36 324.90 411.04 325.63 414.35 C 327.64 416.41 331.17 417.31 331.46 420.64 C 328.74 419.41 326.44 417.46 323.99 415.79 C 323.90 411.22 323.79 406.65 324.02 402.08 Z" />
<path fill="#fff415" d=" M 302.46 400.16 C 304.79 396.28 309.84 397.14 312.63 399.87 C 314.31 402.87 316.60 405.55 319.93 406.73 C 320.10 409.75 320.08 412.78 320.12 415.81 L 319.37 416.16 C 313.66 419.05 306.13 422.06 300.34 417.78 C 298.48 414.81 297.79 411.15 297.72 407.69 C 298.72 404.89 300.96 402.70 302.46 400.16 Z" />
<path fill="#fff514" d=" M 326.08 404.19 C 328.16 401.55 331.07 399.50 334.21 398.33 C 338.03 398.64 341.66 400.97 344.05 403.88 C 345.95 408.67 344.13 413.94 342.38 418.50 C 339.29 419.82 336.15 421.03 332.98 422.15 C 332.63 421.93 331.93 421.49 331.59 421.26 L 331.46 420.64 C 331.17 417.31 327.64 416.41 325.63 414.35 C 324.90 411.04 324.77 407.36 326.08 404.19 Z" />
<path fill="#f9f475" d=" M 295.20 407.19 C 296.74 404.12 299.59 401.91 302.46 400.16 C 300.96 402.70 298.72 404.89 297.72 407.69 C 297.79 411.15 298.48 414.81 300.34 417.78 C 306.13 422.06 313.66 419.05 319.37 416.16 C 316.94 418.19 314.67 420.68 311.75 421.95 C 307.19 421.77 302.75 420.59 298.26 419.88 C 297.28 415.64 296.00 411.47 295.20 407.19 Z" />
<path fill="#fdf449" d=" M 312.63 399.87 C 315.19 400.30 317.64 401.16 320.07 402.04 C 320.04 403.60 319.99 405.16 319.93 406.73 C 316.60 405.55 314.31 402.87 312.63 399.87 Z" />
<path fill="#302106" d=" M 346.01 402.04 C 348.80 407.11 346.84 412.89 346.77 418.30 C 346.69 419.34 347.72 419.96 348.26 420.73 C 343.77 421.67 339.59 423.61 335.31 425.17 C 334.57 424.12 333.71 423.18 332.98 422.15 C 336.15 421.03 339.29 419.82 342.38 418.50 C 343.61 417.98 344.84 417.47 346.05 416.89 C 346.09 411.94 346.03 406.99 346.01 402.04 Z" />
<path fill="#140909" d=" M 189.48 402.99 C 202.24 428.73 222.04 450.57 245.50 467.01 C 245.58 471.85 245.48 476.69 245.55 481.54 C 249.50 483.48 253.70 484.91 257.53 487.10 C 256.21 487.56 254.91 488.04 253.61 488.56 C 247.84 486.32 242.29 483.40 236.26 481.92 C 234.68 485.22 234.96 488.89 235.32 492.42 C 235.46 495.01 235.65 497.59 235.74 500.19 C 235.69 509.85 236.89 519.44 237.21 529.09 C 237.54 533.64 237.39 538.33 238.77 542.74 C 239.16 543.75 239.59 544.76 240.05 545.75 C 238.46 545.47 236.88 545.19 235.31 544.85 C 234.13 538.73 234.64 532.49 233.72 526.36 C 208.98 514.08 185.92 497.21 169.85 474.48 C 180.58 472.38 191.13 469.39 201.83 467.12 C 197.49 456.75 194.10 445.97 192.17 434.88 C 190.16 424.37 189.95 413.65 189.48 402.99 Z" />
<path fill="#261f09" d=" M 400.04 468.91 C 421.77 452.87 440.44 432.32 452.41 407.96 C 452.16 413.66 451.71 419.35 451.64 425.05 C 450.43 440.94 445.97 456.37 440.17 471.15 C 450.77 473.67 461.34 476.39 472.04 478.45 C 465.10 488.51 456.39 497.15 447.47 505.43 C 436.23 515.04 423.70 522.98 410.62 529.80 C 410.85 535.04 410.71 540.28 410.74 545.53 C 388.08 554.09 364.17 559.72 339.96 561.05 C 328.33 562.31 316.55 561.83 304.93 560.68 C 283.65 559.19 262.73 554.18 242.60 547.21 C 241.78 546.72 240.44 546.74 240.05 545.75 C 239.59 544.76 239.16 543.75 238.77 542.74 C 244.64 544.31 250.28 546.66 256.21 548.05 C 256.97 548.28 257.73 548.51 258.50 548.72 C 272.56 553.12 287.15 555.68 301.78 557.24 C 309.00 557.97 316.26 558.27 323.52 558.37 C 324.95 558.38 326.38 558.39 327.82 558.38 C 346.94 558.05 366.08 555.63 384.51 550.45 C 392.18 548.87 399.43 545.85 406.96 543.76 C 408.59 538.31 407.23 532.61 407.22 527.05 C 407.14 515.68 407.12 504.31 407.09 492.94 C 407.11 490.42 406.73 487.93 406.13 485.49 C 404.30 486.04 402.51 486.68 400.78 487.47 C 392.82 491.13 384.54 494.03 376.18 496.62 C 362.70 500.56 348.79 502.93 334.78 503.77 C 328.93 504.06 323.08 504.02 317.23 503.75 C 302.37 502.96 287.72 500.04 273.41 496.04 C 272.99 495.88 272.15 495.55 271.73 495.38 C 265.65 493.23 259.48 491.28 253.61 488.56 C 254.91 488.04 256.21 487.56 257.53 487.10 C 259.78 487.35 261.81 488.43 263.91 489.21 C 286.27 497.30 310.14 501.93 333.97 500.26 C 343.08 500.58 352.02 498.58 360.95 497.11 C 373.20 494.34 385.29 490.68 396.84 485.72 C 397.20 481.18 396.73 476.62 397.13 472.09 C 397.29 470.49 399.00 469.87 400.04 468.91 Z" />
<path fill="#fff277" d=" M 193.94 418.81 C 196.78 422.74 199.28 426.90 202.25 430.74 C 204.55 433.82 207.26 436.61 209.15 439.99 C 207.30 439.36 204.66 439.45 203.77 437.36 C 202.15 433.98 200.67 430.50 198.30 427.54 C 197.82 427.93 196.87 428.72 196.39 429.11 C 197.87 435.27 198.81 441.56 200.28 447.73 C 201.72 454.04 205.46 459.64 205.94 466.21 C 198.64 451.52 195.29 435.08 193.94 418.81 Z" />
<path fill="#fff517" d=" M 335.31 425.17 C 339.59 423.61 343.77 421.67 348.26 420.73 C 349.44 421.82 350.66 422.88 351.75 424.07 C 355.09 428.90 355.91 435.61 352.56 440.63 C 347.58 444.00 340.50 445.45 335.39 441.43 C 333.67 439.26 332.07 437.00 330.61 434.66 C 331.85 431.57 333.08 428.47 334.51 425.47 L 335.31 425.17 Z" />
<path fill="#fcfd4e" d=" M 296.55 423.41 C 301.26 424.02 305.93 424.94 310.64 425.61 C 311.54 429.65 315.51 434.34 312.15 438.14 C 309.81 441.51 307.84 445.15 305.18 448.27 C 304.17 448.38 303.15 448.40 302.15 448.36 C 307.00 443.40 313.16 436.43 309.93 429.03 C 306.71 427.01 302.81 426.18 299.04 426.15 C 296.34 426.85 294.16 428.77 291.75 430.10 C 293.06 427.67 294.79 425.52 296.55 423.41 Z" />
<path fill="#fcf263" d=" M 351.75 424.07 C 353.67 425.53 356.40 426.69 357.15 429.13 C 356.92 433.81 355.95 438.59 353.68 442.73 C 349.93 445.10 345.23 445.25 341.38 447.46 C 338.75 446.15 337.09 443.70 335.39 441.43 C 340.50 445.45 347.58 444.00 352.56 440.63 C 355.91 435.61 355.09 428.90 351.75 424.07 Z" />
<path fill="#fdf554" d=" M 442.20 431.19 C 444.21 428.41 446.00 425.46 448.27 422.88 C 448.08 431.51 446.43 440.03 444.37 448.39 C 442.88 453.48 441.72 458.74 439.22 463.45 C 438.19 457.35 441.96 451.99 443.18 446.22 C 444.17 441.55 446.57 436.35 443.91 431.82 C 439.20 439.87 432.83 446.74 426.01 453.02 C 420.09 458.44 414.61 464.35 408.22 469.24 C 406.62 470.59 404.79 471.84 403.76 473.73 C 403.33 476.45 403.61 479.21 403.58 481.96 C 402.46 482.26 401.34 482.57 400.24 482.90 C 400.27 479.43 400.22 475.97 400.37 472.52 C 416.36 461.07 430.80 447.26 442.20 431.19 Z" />
<path fill="#fff515" d=" M 291.75 430.10 C 294.16 428.77 296.34 426.85 299.04 426.15 C 302.81 426.18 306.71 427.01 309.93 429.03 C 313.16 436.43 307.00 443.40 302.15 448.36 C 299.49 448.14 296.82 447.99 294.17 447.74 C 291.54 443.55 289.14 439.01 288.59 434.02 C 288.89 432.28 290.38 431.05 291.75 430.10 Z" />
<path fill="#fff415" d=" M 196.39 429.11 C 196.87 428.72 197.82 427.93 198.30 427.54 C 200.67 430.50 202.15 433.98 203.77 437.36 C 204.66 439.45 207.30 439.36 209.15 439.99 L 209.81 440.15 L 210.10 440.79 C 214.82 450.58 223.79 457.27 232.15 463.81 C 235.07 466.20 238.60 468.00 240.90 471.07 C 240.76 472.65 240.48 474.22 240.12 475.78 C 237.65 476.14 235.18 476.50 232.72 476.86 C 231.24 479.81 229.56 482.79 229.21 486.13 C 228.13 496.33 231.54 506.34 230.75 516.54 C 230.31 516.75 229.43 517.18 228.99 517.39 C 220.33 513.77 213.26 507.49 205.32 502.65 C 200.08 499.50 196.62 493.80 190.60 491.94 C 188.67 491.18 187.39 489.45 185.94 488.07 C 182.67 484.49 179.02 481.13 176.76 476.77 C 186.75 474.46 196.74 472.14 206.72 469.76 C 206.45 468.57 206.16 467.39 205.94 466.21 C 205.46 459.64 201.72 454.04 200.28 447.73 C 198.81 441.56 197.87 435.27 196.39 429.11 Z" />
<path fill="#fff315" d=" M 443.91 431.82 C 446.57 436.35 444.17 441.55 443.18 446.22 C 441.96 451.99 438.19 457.35 439.22 463.45 C 438.75 467.01 436.51 470.08 435.59 473.53 C 435.47 473.94 435.23 474.76 435.12 475.16 C 440.43 478.11 446.65 478.06 452.40 479.56 C 455.34 480.29 458.24 481.20 461.15 482.06 C 458.40 489.10 451.92 493.52 446.80 498.72 C 443.11 502.52 438.95 505.80 434.34 508.39 C 432.81 508.87 434.06 510.41 434.22 511.42 L 434.36 511.83 C 434.07 511.90 433.49 512.03 433.20 512.10 C 425.51 513.40 420.36 521.05 412.30 521.16 C 413.12 510.55 413.29 499.89 412.69 489.26 C 412.46 486.65 411.08 484.38 409.90 482.12 C 409.14 482.11 407.64 482.09 406.88 482.08 C 405.78 482.06 404.68 482.02 403.58 481.96 C 403.61 479.21 403.33 476.45 403.76 473.73 C 404.79 471.84 406.62 470.59 408.22 469.24 C 414.61 464.35 420.09 458.44 426.01 453.02 C 432.83 446.74 439.20 439.87 443.91 431.82 Z" />
<path fill="#2e1e05" d=" M 330.35 434.25 L 330.61 434.66 C 332.07 437.00 333.67 439.26 335.39 441.43 C 337.09 443.70 338.75 446.15 341.38 447.46 C 340.05 448.50 338.73 449.55 337.37 450.55 C 334.82 446.44 331.62 442.79 328.94 438.78 C 329.49 437.29 329.95 435.78 330.35 434.25 Z" />
<path fill="#fffa4c" d=" M 317.14 437.09 C 320.69 436.83 324.25 436.82 327.81 437.04 C 328.09 437.48 328.66 438.35 328.94 438.78 C 331.62 442.79 334.82 446.44 337.37 450.55 C 336.92 451.14 336.01 452.32 335.55 452.91 C 332.33 447.55 330.05 439.75 322.69 439.09 C 317.68 437.87 315.09 443.42 312.77 446.79 C 309.94 450.33 313.20 454.64 315.30 457.63 C 319.30 462.21 326.12 461.11 331.21 459.33 C 332.20 456.95 333.71 454.84 335.75 453.25 C 335.04 455.84 334.36 458.53 332.82 460.77 C 327.64 462.70 321.71 463.10 316.31 461.81 C 313.03 458.56 311.01 454.15 308.66 450.19 C 311.46 445.80 314.25 441.41 317.14 437.09 Z" />
<path fill="#fff511" d=" M 312.77 446.79 C 315.09 443.42 317.68 437.87 322.69 439.09 C 330.05 439.75 332.33 447.55 335.55 452.91 L 335.75 453.25 C 333.71 454.84 332.20 456.95 331.21 459.33 C 326.12 461.11 319.30 462.21 315.30 457.63 C 313.20 454.64 309.94 450.33 312.77 446.79 Z" />
<path fill="#fcf263" d=" M 210.10 440.79 C 214.17 444.41 217.58 448.72 221.72 452.28 C 227.99 458.38 234.91 463.73 241.82 469.08 C 241.73 472.21 241.72 475.36 241.76 478.50 C 239.43 478.23 236.90 477.57 234.70 478.76 C 232.78 479.85 231.51 481.96 231.19 484.12 C 230.74 496.54 232.30 508.92 232.11 521.33 C 220.03 515.09 208.41 507.81 197.95 499.10 C 195.30 496.94 192.37 494.94 190.60 491.94 C 196.62 493.80 200.08 499.50 205.32 502.65 C 213.26 507.49 220.33 513.77 228.99 517.39 C 229.43 517.18 230.31 516.75 230.75 516.54 C 231.54 506.34 228.13 496.33 229.21 486.13 C 229.56 482.79 231.24 479.81 232.72 476.86 C 235.18 476.50 237.65 476.14 240.12 475.78 C 240.48 474.22 240.76 472.65 240.90 471.07 C 238.60 468.00 235.07 466.20 232.15 463.81 C 223.79 457.27 214.82 450.58 210.10 440.79 Z" />
<path fill="#fdf83e" d=" M 435.12 475.16 C 435.23 474.76 435.47 473.94 435.59 473.53 C 445.07 475.61 454.53 477.81 463.93 480.23 C 463.86 480.85 463.74 482.09 463.68 482.72 C 463.86 484.07 462.79 485.09 462.06 486.08 C 453.85 495.60 444.69 504.42 434.22 511.42 C 434.06 510.41 432.81 508.87 434.34 508.39 C 438.95 505.80 443.11 502.52 446.80 498.72 C 451.92 493.52 458.40 489.10 461.15 482.06 C 458.24 481.20 455.34 480.29 452.40 479.56 C 446.65 478.06 440.43 478.11 435.12 475.16 Z" />
<path fill="#fcfcfa" d=" M 463.93 480.23 C 466.48 478.52 466.09 484.16 463.68 482.72 C 463.74 482.09 463.86 480.85 463.93 480.23 Z" />
<path fill="#fef93e" d=" M 236.26 481.92 C 242.29 483.40 247.84 486.32 253.61 488.56 C 259.48 491.28 265.65 493.23 271.73 495.38 C 270.93 496.30 270.12 497.22 269.47 498.25 C 269.97 499.27 270.72 500.15 271.43 501.05 C 269.80 506.02 268.11 511.01 267.15 516.16 C 266.16 519.92 269.30 523.23 272.60 524.42 C 275.38 525.45 278.36 524.67 281.10 523.91 C 281.30 524.48 281.69 525.61 281.89 526.18 C 277.11 526.28 271.16 527.62 267.73 523.31 C 263.56 519.78 265.65 514.09 266.01 509.49 C 265.19 509.47 264.38 509.46 263.56 509.49 C 262.31 505.69 257.89 505.29 254.81 503.65 C 255.48 502.00 256.17 500.37 256.87 498.75 C 260.26 500.13 263.62 501.60 266.97 503.06 C 267.33 502.00 267.78 500.99 268.34 500.03 C 264.12 498.14 259.84 496.39 255.69 494.37 C 257.14 493.83 258.57 493.24 260.00 492.67 C 252.27 490.16 244.97 486.43 237.10 484.36 C 236.56 487.06 235.91 489.73 235.32 492.42 C 234.96 488.89 234.68 485.22 236.26 481.92 Z" />
<path fill="#fcf263" d=" M 406.88 482.08 C 407.64 482.09 409.14 482.11 409.90 482.12 C 411.08 484.38 412.46 486.65 412.69 489.26 C 413.29 499.89 413.12 510.55 412.30 521.16 C 420.36 521.05 425.51 513.40 433.20 512.10 C 426.41 517.40 418.90 521.78 411.18 525.57 C 411.08 513.70 411.21 501.83 411.15 489.96 C 411.38 486.71 409.09 484.13 406.88 482.08 Z" />
<path fill="#fff415" d=" M 237.10 484.36 C 244.97 486.43 252.27 490.16 260.00 492.67 C 258.57 493.24 257.14 493.83 255.69 494.37 C 255.35 494.39 254.67 494.45 254.33 494.47 C 253.92 494.52 253.10 494.61 252.70 494.65 C 250.24 500.48 247.37 506.19 245.46 512.21 C 245.23 515.73 249.53 516.09 252.13 516.47 C 252.82 514.44 253.56 512.43 254.31 510.43 C 256.35 510.16 258.40 509.91 260.45 509.70 C 261.48 509.62 262.52 509.55 263.56 509.49 C 264.38 509.46 265.19 509.47 266.01 509.49 C 265.65 514.09 263.56 519.78 267.73 523.31 C 271.16 527.62 277.11 526.28 281.89 526.18 C 281.69 525.61 281.30 524.48 281.10 523.91 C 281.90 522.58 282.72 521.26 283.41 519.88 C 284.04 520.07 285.29 520.44 285.92 520.63 C 286.38 518.04 286.92 515.47 287.61 512.94 C 288.17 517.74 287.10 522.62 288.19 527.37 C 288.27 527.75 288.44 528.51 288.52 528.89 C 288.95 530.15 289.44 531.38 289.92 532.63 C 288.99 533.90 288.06 535.17 287.14 536.45 C 286.61 537.17 286.12 537.92 285.68 538.69 C 286.82 541.51 287.93 544.34 288.52 547.34 C 288.36 548.74 288.20 550.15 288.06 551.56 C 284.34 551.90 280.57 552.64 276.86 551.90 C 270.73 550.87 264.88 547.39 258.50 548.72 C 257.73 548.51 256.97 548.28 256.21 548.05 C 251.88 543.40 244.83 543.87 240.08 539.96 C 237.26 533.74 239.01 526.60 238.21 519.98 C 237.18 510.92 237.51 501.78 236.47 492.73 C 236.16 495.20 235.87 497.69 235.74 500.19 C 235.65 497.59 235.46 495.01 235.32 492.42 C 235.91 489.73 236.56 487.06 237.10 484.36 Z" />
<path fill="#faf36a" d=" M 400.78 487.47 C 402.51 486.68 404.30 486.04 406.13 485.49 C 406.73 487.93 407.11 490.42 407.09 492.94 C 407.12 504.31 407.14 515.68 407.22 527.05 C 407.23 532.61 408.59 538.31 406.96 543.76 C 405.93 541.88 405.22 539.80 405.42 537.64 C 405.83 528.95 405.89 520.24 405.56 511.55 C 405.20 503.83 405.56 496.07 404.74 488.37 C 403.41 488.07 402.10 487.77 400.78 487.47 Z" />
<path fill="#fff516" d=" M 376.18 496.62 C 384.54 494.03 392.82 491.13 400.78 487.47 C 402.10 487.77 403.41 488.07 404.74 488.37 C 405.56 496.07 405.20 503.83 405.56 511.55 C 405.89 520.24 405.83 528.95 405.42 537.64 C 405.22 539.80 405.93 541.88 406.96 543.76 C 399.43 545.85 392.18 548.87 384.51 550.45 C 376.49 549.53 368.84 552.77 361.02 553.94 C 361.00 551.78 360.90 549.62 360.64 547.48 C 357.50 543.46 357.13 538.33 356.33 533.48 C 351.72 537.62 349.53 543.76 347.59 549.48 C 350.30 549.34 353.01 549.13 355.72 548.99 C 356.02 550.49 356.33 552.00 356.66 553.51 C 351.00 554.53 345.34 555.67 339.58 555.99 C 341.64 550.80 340.56 545.15 339.53 539.86 C 338.97 536.67 335.29 536.33 332.77 535.53 C 332.91 534.73 333.06 533.94 333.21 533.16 C 331.60 534.58 330.00 536.04 328.60 537.67 C 327.42 541.18 328.75 544.91 327.51 548.40 C 326.63 550.71 327.92 552.88 328.85 554.93 C 328.51 556.07 328.16 557.22 327.82 558.38 C 326.38 558.39 324.95 558.38 323.52 558.37 C 321.38 557.03 319.07 556.03 316.68 555.26 C 316.82 553.50 317.01 551.75 317.21 550.00 L 317.35 549.21 C 319.07 544.28 318.34 539.07 316.44 534.32 C 320.37 533.92 325.08 534.23 327.94 530.95 C 329.74 529.24 329.94 526.65 330.01 524.32 C 330.32 519.72 329.47 514.35 325.23 511.71 C 321.12 510.03 316.54 510.56 312.20 510.32 C 310.88 510.27 309.57 510.24 308.26 510.17 C 307.07 509.97 305.90 509.78 304.72 509.61 C 303.13 512.18 301.42 514.78 298.88 516.53 C 298.18 514.91 297.55 513.27 297.04 511.59 C 296.82 509.67 297.83 506.86 295.55 505.87 C 292.72 505.78 289.96 506.49 287.21 507.03 L 287.43 506.27 C 288.83 504.01 284.84 502.33 284.24 504.87 C 282.14 509.85 281.53 515.36 279.12 520.21 C 276.85 522.90 273.36 520.65 270.73 519.88 C 270.93 513.94 272.95 508.32 274.66 502.71 C 273.57 502.15 272.50 501.60 271.43 501.05 C 270.72 500.15 269.97 499.27 269.47 498.25 C 270.12 497.22 270.93 496.30 271.73 495.38 C 272.15 495.55 272.99 495.88 273.41 496.04 C 275.42 497.32 277.48 498.60 279.81 499.24 C 289.52 502.14 299.60 503.55 309.64 504.71 C 316.60 506.72 323.87 505.75 331.00 505.98 C 334.23 506.02 337.46 505.90 340.67 505.61 C 340.20 505.25 339.26 504.54 338.79 504.18 C 344.32 504.59 349.90 504.35 355.33 503.25 C 362.14 501.98 369.15 501.48 375.62 498.83 C 375.80 498.08 375.99 497.35 376.18 496.62 Z" />
<path fill="#fcf263" d=" M 236.47 492.73 C 237.51 501.78 237.18 510.92 238.21 519.98 C 239.01 526.60 237.26 533.74 240.08 539.96 C 244.83 543.87 251.88 543.40 256.21 548.05 C 250.28 546.66 244.64 544.31 238.77 542.74 C 237.39 538.33 237.54 533.64 237.21 529.09 C 236.89 519.44 235.69 509.85 235.74 500.19 C 235.87 497.69 236.16 495.20 236.47 492.73 Z" />
<path fill="#f9f475" d=" M 252.70 494.65 C 253.10 494.61 253.92 494.52 254.33 494.47 C 252.21 501.14 248.93 507.35 246.48 513.89 C 247.59 514.23 248.69 514.62 249.78 515.07 C 251.01 512.34 252.23 509.60 253.38 506.85 C 255.73 507.79 258.07 508.80 260.45 509.70 C 258.40 509.91 256.35 510.16 254.31 510.43 C 253.56 512.43 252.82 514.44 252.13 516.47 C 249.53 516.09 245.23 515.73 245.46 512.21 C 247.37 506.19 250.24 500.48 252.70 494.65 Z" />
<path fill="#160d06" d=" M 254.33 494.47 C 254.67 494.45 255.35 494.39 255.69 494.37 C 259.84 496.39 264.12 498.14 268.34 500.03 C 267.78 500.99 267.33 502.00 266.97 503.06 C 263.62 501.60 260.26 500.13 256.87 498.75 C 256.17 500.37 255.48 502.00 254.81 503.65 C 257.89 505.29 262.31 505.69 263.56 509.49 C 262.52 509.55 261.48 509.62 260.45 509.70 C 258.07 508.80 255.73 507.79 253.38 506.85 C 252.23 509.60 251.01 512.34 249.78 515.07 C 248.69 514.62 247.59 514.23 246.48 513.89 C 248.93 507.35 252.21 501.14 254.33 494.47 Z" />
<path fill="#f9f475" d=" M 273.41 496.04 C 287.72 500.04 302.37 502.96 317.23 503.75 C 314.69 503.99 312.17 504.41 309.64 504.71 C 299.60 503.55 289.52 502.14 279.81 499.24 C 277.48 498.60 275.42 497.32 273.41 496.04 Z" />
<path fill="#fcf263" d=" M 334.78 503.77 C 348.79 502.93 362.70 500.56 376.18 496.62 C 375.99 497.35 375.80 498.08 375.62 498.83 C 369.15 501.48 362.14 501.98 355.33 503.25 C 349.90 504.35 344.32 504.59 338.79 504.18 C 337.45 504.01 336.12 503.87 334.78 503.77 Z" />
<path fill="#1c0907" d=" M 267.15 516.16 C 268.11 511.01 269.80 506.02 271.43 501.05 C 272.50 501.60 273.57 502.15 274.66 502.71 C 272.95 508.32 270.93 513.94 270.73 519.88 C 273.36 520.65 276.85 522.90 279.12 520.21 C 281.53 515.36 282.14 509.85 284.24 504.87 C 285.21 505.53 286.27 506.00 287.43 506.27 L 287.21 507.03 C 285.98 511.32 284.87 515.65 283.41 519.88 C 282.72 521.26 281.90 522.58 281.10 523.91 C 278.36 524.67 275.38 525.45 272.60 524.42 C 269.30 523.23 266.16 519.92 267.15 516.16 Z" />
<path fill="#fef94a" d=" M 377.04 504.14 C 377.28 501.68 380.61 500.35 382.47 502.05 C 381.38 502.51 380.30 502.99 379.24 503.51 C 378.27 511.08 377.31 518.65 376.23 526.21 C 374.73 525.36 373.22 524.53 371.71 523.70 C 373.92 519.26 372.54 514.30 370.58 510.06 C 373.61 510.26 373.62 514.06 374.89 516.17 C 376.20 512.28 376.46 508.17 377.04 504.14 Z" />
<path fill="#1a0b06" d=" M 382.47 502.05 C 387.03 508.43 391.62 514.79 396.22 521.15 C 394.85 521.49 393.48 521.83 392.11 522.17 C 391.07 520.31 389.91 518.53 388.75 516.76 C 386.24 517.25 383.75 517.81 381.25 518.29 C 380.89 520.18 380.56 522.07 380.14 523.95 C 379.56 525.52 377.51 525.52 376.23 526.21 C 377.31 518.65 378.27 511.08 379.24 503.51 C 380.30 502.99 381.38 502.51 382.47 502.05 Z" />
<path fill="#fefb1b" d=" M 262.85 504.35 C 264.57 504.22 266.30 504.12 268.03 504.04 C 267.90 505.38 267.77 506.74 267.63 508.09 C 265.85 507.11 264.22 505.86 262.85 504.35 Z" />
<path fill="#fee678" d=" M 284.24 504.87 C 284.84 502.33 288.83 504.01 287.43 506.27 C 286.27 506.00 285.21 505.53 284.24 504.87 Z" />
<path fill="#fff450" d=" M 309.64 504.71 C 312.17 504.41 314.69 503.99 317.23 503.75 C 323.08 504.02 328.93 504.06 334.78 503.77 C 336.12 503.87 337.45 504.01 338.79 504.18 C 339.26 504.54 340.20 505.25 340.67 505.61 C 337.46 505.90 334.23 506.02 331.00 505.98 C 323.87 505.75 316.60 506.72 309.64 504.71 Z" />
<path fill="#fafb44" d=" M 287.21 507.03 C 289.96 506.49 292.72 505.78 295.55 505.87 C 297.83 506.86 296.82 509.67 297.04 511.59 C 295.89 509.32 293.88 507.83 291.62 506.80 C 290.33 513.63 289.46 520.53 288.19 527.37 C 287.10 522.62 288.17 517.74 287.61 512.94 C 286.92 515.47 286.38 518.04 285.92 520.63 C 285.29 520.44 284.04 520.07 283.41 519.88 C 284.87 515.65 285.98 511.32 287.21 507.03 Z" />
<path fill="#180a09" d=" M 291.62 506.80 C 293.88 507.83 295.89 509.32 297.04 511.59 C 297.55 513.27 298.18 514.91 298.88 516.53 C 299.96 518.95 301.18 521.31 302.51 523.61 C 303.32 518.95 303.97 514.27 304.72 509.61 C 305.90 509.78 307.07 509.97 308.26 510.17 C 307.51 515.54 306.60 520.88 305.90 526.25 C 305.52 527.79 305.14 529.34 304.75 530.89 C 304.08 530.89 302.74 530.89 302.07 530.89 C 301.43 529.98 300.81 529.06 300.18 528.16 C 298.43 523.77 296.55 519.42 294.11 515.37 C 293.00 519.81 292.41 524.35 291.74 528.87 C 290.66 528.87 289.59 528.88 288.52 528.89 C 288.44 528.51 288.27 527.75 288.19 527.37 C 289.46 520.53 290.33 513.63 291.62 506.80 Z" />
<path fill="#1d0a06" d=" M 353.08 508.57 C 356.74 507.94 360.33 506.83 364.05 506.63 C 366.68 506.63 368.80 508.31 370.58 510.06 C 372.54 514.30 373.92 519.26 371.71 523.70 C 370.76 525.59 368.82 526.60 366.96 527.41 C 363.76 528.30 360.49 528.92 357.26 529.73 C 356.43 525.63 355.56 521.54 354.63 517.47 C 353.96 514.53 353.35 511.57 353.08 508.57 Z" />
<path fill="#fbec5b" d=" M 339.68 508.35 C 341.00 508.31 342.32 508.29 343.65 508.29 C 345.81 511.84 348.89 515.37 348.32 519.84 L 347.61 519.09 C 345.51 515.64 344.24 511.48 340.71 509.16 C 340.45 508.96 339.94 508.55 339.68 508.35 Z" />
<path fill="#f7efa0" d=" M 382.20 507.61 C 383.67 509.61 385.12 511.63 386.45 513.74 C 384.71 514.17 382.98 514.61 381.25 515.04 C 381.62 512.57 381.92 510.09 382.20 507.61 Z" />
<path fill="#f9f475" d=" M 298.88 516.53 C 301.42 514.78 303.13 512.18 304.72 509.61 C 303.97 514.27 303.32 518.95 302.51 523.61 C 301.18 521.31 299.96 518.95 298.88 516.53 Z" />
<path fill="#fff448" d=" M 308.26 510.17 C 309.57 510.24 310.88 510.27 312.20 510.32 C 312.15 516.55 311.98 522.77 311.81 529.00 C 311.21 529.74 310.61 530.48 310.01 531.23 C 309.96 526.98 309.95 522.73 310.02 518.48 C 308.65 521.07 307.22 523.63 305.90 526.25 C 306.60 520.88 307.51 515.54 308.26 510.17 Z" />
<path fill="#190c05" d=" M 312.20 510.32 C 316.54 510.56 321.12 510.03 325.23 511.71 C 329.47 514.35 330.32 519.72 330.01 524.32 C 328.54 527.16 327.08 530.75 323.60 531.55 C 319.71 532.35 315.70 531.83 311.76 531.91 C 311.77 531.18 311.80 529.73 311.81 529.00 C 311.98 522.77 312.15 516.55 312.20 510.32 Z" />
<path fill="#190b06" d=" M 337.45 516.42 C 338.19 513.86 338.71 511.09 340.71 509.16 C 344.24 511.48 345.51 515.64 347.61 519.09 L 347.95 519.75 C 349.63 523.30 351.44 526.80 353.11 530.36 C 351.86 530.60 350.61 530.87 349.38 531.17 L 348.95 530.25 C 348.11 528.49 347.27 526.75 346.47 524.99 C 343.82 525.17 341.19 525.43 338.56 525.70 C 337.98 527.81 337.38 529.92 336.89 532.06 C 335.58 532.09 334.27 532.13 332.96 532.19 C 334.47 526.94 336.01 521.69 337.45 516.42 Z" />
<path fill="#fff622" d=" M 357.48 511.99 C 360.45 508.94 367.88 509.41 368.46 514.75 C 367.78 517.36 368.19 521.06 365.40 522.51 C 363.60 523.56 361.47 522.71 359.57 522.54 C 358.80 519.03 357.89 515.55 357.48 511.99 Z" />
<path fill="#f9f475" d=" M 316.07 514.04 C 317.38 513.99 318.70 513.94 320.02 513.89 C 316.89 517.21 316.54 521.80 316.84 526.14 C 319.21 526.14 321.59 526.12 323.97 526.10 C 324.34 523.84 325.06 521.56 324.77 519.26 C 324.12 517.53 322.62 516.30 321.47 514.92 C 321.97 514.83 322.98 514.67 323.48 514.58 C 326.80 517.11 326.53 521.79 325.39 525.38 C 324.13 529.52 318.87 528.48 315.56 528.40 C 315.72 523.61 315.91 518.83 316.07 514.04 Z" />
<path fill="#fff51b" d=" M 320.02 513.89 C 321.38 514.08 322.75 514.28 324.12 514.48 L 323.48 514.58 C 322.98 514.67 321.97 514.83 321.47 514.92 C 322.62 516.30 324.12 517.53 324.77 519.26 C 325.06 521.56 324.34 523.84 323.97 526.10 C 321.59 526.12 319.21 526.14 316.84 526.14 C 316.54 521.80 316.89 517.21 320.02 513.89 Z" />
<path fill="#e2e491" d=" M 341.45 514.77 C 342.72 517.14 343.84 519.59 344.94 522.04 C 343.14 522.06 341.34 522.08 339.55 522.10 C 340.15 519.65 340.81 517.21 341.45 514.77 Z" />
<path fill="#f5f47d" d=" M 368.46 514.75 C 369.04 517.42 369.78 520.59 367.83 522.91 C 365.72 524.73 362.81 525.01 360.15 525.26 C 360.00 524.58 359.71 523.22 359.57 522.54 C 361.47 522.71 363.60 523.56 365.40 522.51 C 368.19 521.06 367.78 517.36 368.46 514.75 Z" />
<path fill="#f5f47d" d=" M 294.11 515.37 C 296.55 519.42 298.43 523.77 300.18 528.16 C 298.04 525.56 296.09 522.81 294.29 519.97 C 293.61 524.18 293.02 528.46 293.51 532.73 C 291.44 534.07 289.31 535.29 287.14 536.45 C 288.06 535.17 288.99 533.90 289.92 532.63 C 289.44 531.38 288.95 530.15 288.52 528.89 C 289.59 528.88 290.66 528.87 291.74 528.87 C 292.41 524.35 293.00 519.81 294.11 515.37 Z" />
<path fill="#f5f47d" d=" M 381.25 518.29 C 383.75 517.81 386.24 517.25 388.75 516.76 C 389.91 518.53 391.07 520.31 392.11 522.17 L 392.56 522.97 C 390.40 521.66 388.53 519.96 386.79 518.15 C 383.95 519.27 382.01 521.65 380.14 523.95 C 380.56 522.07 380.89 520.18 381.25 518.29 Z" />
<path fill="#fff53f" d=" M 354.63 517.47 C 355.56 521.54 356.43 525.63 357.26 529.73 C 360.49 528.92 363.76 528.30 366.96 527.41 C 367.10 530.98 362.44 530.97 359.81 531.20 C 355.64 530.67 351.64 532.69 347.49 531.82 C 347.97 531.66 348.91 531.33 349.38 531.17 C 350.61 530.87 351.86 530.60 353.11 530.36 C 351.44 526.80 349.63 523.30 347.95 519.75 C 350.85 520.71 352.20 523.42 353.16 526.10 C 353.54 523.21 354.03 520.32 354.63 517.47 Z" />
<path fill="#fff616" d=" M 305.90 526.25 C 307.22 523.63 308.65 521.07 310.02 518.48 C 309.95 522.73 309.96 526.98 310.01 531.23 C 310.61 530.48 311.21 529.74 311.81 529.00 C 311.80 529.73 311.77 531.18 311.76 531.91 C 309.56 534.03 306.92 535.95 305.90 538.96 C 305.55 540.32 305.21 541.69 304.91 543.08 C 304.29 545.79 305.34 548.41 307.29 550.30 C 306.63 550.23 305.29 550.09 304.63 550.02 C 305.64 551.62 306.72 553.19 307.85 554.72 C 302.12 554.09 296.35 554.31 290.61 554.28 C 295.13 549.90 294.47 543.21 293.77 537.53 C 293.72 535.92 293.64 534.32 293.51 532.73 C 293.02 528.46 293.61 524.18 294.29 519.97 C 296.09 522.81 298.04 525.56 300.18 528.16 C 300.81 529.06 301.43 529.98 302.07 530.89 C 302.74 530.89 304.08 530.89 304.75 530.89 C 305.14 529.34 305.52 527.79 305.90 526.25 Z" />
<path fill="#fff247" d=" M 323.60 531.55 C 327.08 530.75 328.54 527.16 330.01 524.32 C 329.94 526.65 329.74 529.24 327.94 530.95 C 325.08 534.23 320.37 533.92 316.44 534.32 C 318.34 539.07 319.07 544.28 317.35 549.21 C 317.41 546.50 317.73 543.74 317.14 541.07 C 316.55 538.26 313.80 536.25 311.00 536.16 C 309.03 536.45 307.51 537.90 305.90 538.96 C 306.92 535.95 309.56 534.03 311.76 531.91 C 315.70 531.83 319.71 532.35 323.60 531.55 Z" />
<path fill="#fff66b" d=" M 338.56 525.70 C 341.19 525.43 343.82 525.17 346.47 524.99 C 347.27 526.75 348.11 528.49 348.95 530.25 C 347.68 529.20 346.43 528.14 345.16 527.10 C 343.53 527.38 341.93 527.76 340.31 528.06 C 339.78 530.19 338.74 532.14 336.65 533.11 L 336.89 532.06 C 337.38 529.92 337.98 527.81 338.56 525.70 Z" />
<path fill="#250f04" d=" M 287.14 536.45 C 289.31 535.29 291.44 534.07 293.51 532.73 C 293.64 534.32 293.72 535.92 293.77 537.53 C 292.49 542.09 291.46 546.71 290.65 551.38 C 289.78 551.43 288.92 551.49 288.06 551.56 C 288.20 550.15 288.36 548.74 288.52 547.34 C 289.13 544.38 289.79 541.43 290.38 538.48 C 288.81 538.56 287.24 538.64 285.68 538.69 C 286.12 537.92 286.61 537.17 287.14 536.45 Z" />
<path fill="#fdf45e" d=" M 328.60 537.67 C 330.00 536.04 331.60 534.58 333.21 533.16 C 333.06 533.94 332.91 534.73 332.77 535.53 C 335.29 536.33 338.97 536.67 339.53 539.86 C 340.56 545.15 341.64 550.80 339.58 555.99 C 345.34 555.67 351.00 554.53 356.66 553.51 C 358.61 551.97 359.37 549.52 360.64 547.48 C 360.90 549.62 361.00 551.78 361.02 553.94 C 368.84 552.77 376.49 549.53 384.51 550.45 C 366.08 555.63 346.94 558.05 327.82 558.38 C 328.16 557.22 328.51 556.07 328.85 554.93 C 331.76 555.51 335.51 556.44 337.67 553.70 C 339.96 551.53 338.41 548.18 337.98 545.56 C 337.28 542.95 339.05 539.39 336.16 537.77 C 333.89 536.43 331.05 537.46 328.60 537.67 Z" />
<path fill="#1f0e0b" d=" M 347.59 549.48 C 349.53 543.76 351.72 537.62 356.33 533.48 C 357.13 538.33 357.50 543.46 360.64 547.48 C 359.37 549.52 358.61 551.97 356.66 553.51 C 356.33 552.00 356.02 550.49 355.72 548.99 C 353.01 549.13 350.30 549.34 347.59 549.48 Z" />
<path fill="#200d0b" d=" M 305.90 538.96 C 307.51 537.90 309.03 536.45 311.00 536.16 C 313.80 536.25 316.55 538.26 317.14 541.07 C 317.73 543.74 317.41 546.50 317.35 549.21 L 317.21 550.00 C 315.75 551.92 314.10 553.70 312.23 555.23 C 310.77 555.04 309.31 554.87 307.85 554.72 C 306.72 553.19 305.64 551.62 304.63 550.02 C 305.29 550.09 306.63 550.23 307.29 550.30 C 308.46 552.45 310.61 552.72 312.79 552.27 C 313.26 550.95 313.74 549.64 314.22 548.34 C 312.40 548.39 310.44 549.05 308.73 548.21 C 306.65 547.27 305.96 544.91 304.91 543.08 C 305.21 541.69 305.55 540.32 305.90 538.96 Z" />
<path fill="#201104" d=" M 328.60 537.67 C 331.05 537.46 333.89 536.43 336.16 537.77 C 339.05 539.39 337.28 542.95 337.98 545.56 C 338.41 548.18 339.96 551.53 337.67 553.70 C 335.51 556.44 331.76 555.51 328.85 554.93 C 327.92 552.88 326.63 550.71 327.51 548.40 C 328.75 544.91 327.42 541.18 328.60 537.67 Z" />
<path fill="#f5f47d" d=" M 285.68 538.69 C 287.24 538.64 288.81 538.56 290.38 538.48 C 289.79 541.43 289.13 544.38 288.52 547.34 C 287.93 544.34 286.82 541.51 285.68 538.69 Z" />
<path fill="#fff43f" d=" M 290.65 551.38 C 291.46 546.71 292.49 542.09 293.77 537.53 C 294.47 543.21 295.13 549.90 290.61 554.28 C 296.35 554.31 302.12 554.09 307.85 554.72 C 309.31 554.87 310.77 555.04 312.23 555.23 C 309.06 557.03 305.35 557.35 301.78 557.24 C 287.15 555.68 272.56 553.12 258.50 548.72 C 264.88 547.39 270.73 550.87 276.86 551.90 C 280.57 552.64 284.34 551.90 288.06 551.56 C 288.92 551.49 289.78 551.43 290.65 551.38 Z" />
<path fill="#f5fe35" d=" M 309.75 539.59 C 311.01 537.84 313.15 539.36 314.54 540.10 L 314.22 541.19 C 314.16 541.80 314.03 543.02 313.97 543.63 C 314.21 546.49 310.96 546.10 309.06 545.81 L 309.38 544.88 C 309.21 544.39 308.88 543.41 308.71 542.92 C 307.00 542.19 309.27 540.48 309.75 539.59 Z" />
<path fill="#f9f197" d=" M 329.87 542.96 C 330.73 541.48 331.23 538.08 333.65 539.32 C 335.87 539.84 335.11 542.32 335.19 543.98 C 333.35 543.98 331.54 543.71 329.87 542.96 Z" />
<path fill="#f5f47d" d=" M 350.91 546.72 C 352.13 544.09 353.38 541.49 354.66 538.89 C 354.81 541.20 355.02 543.51 355.20 545.83 C 353.76 546.11 352.33 546.41 350.91 546.72 Z" />
<path fill="#a58d5d" d=" M 314.22 541.19 C 316.02 540.78 315.65 544.40 313.97 543.63 C 314.03 543.02 314.16 541.80 314.22 541.19 Z" />
<path fill="#f1f581" d=" M 304.91 543.08 C 305.96 544.91 306.65 547.27 308.73 548.21 C 310.44 549.05 312.40 548.39 314.22 548.34 C 313.74 549.64 313.26 550.95 312.79 552.27 C 310.61 552.72 308.46 552.45 307.29 550.30 C 305.34 548.41 304.29 545.79 304.91 543.08 Z" />
<path fill="#fefefe" d=" M 308.71 542.92 C 308.88 543.41 309.21 544.39 309.38 544.88 C 309.09 544.56 308.51 543.94 308.21 543.63 L 308.71 542.92 Z" />
<path fill="#faf959" d=" M 329.69 548.17 C 331.20 547.45 332.97 545.89 334.68 547.09 C 337.63 548.45 336.31 553.66 332.98 553.12 C 330.21 553.26 329.81 550.24 329.69 548.17 Z" />
<path fill="#f6f93c" d=" M 312.23 555.23 C 314.10 553.70 315.75 551.92 317.21 550.00 C 317.01 551.75 316.82 553.50 316.68 555.26 C 319.07 556.03 321.38 557.03 323.52 558.37 C 316.26 558.27 309.00 557.97 301.78 557.24 C 305.35 557.35 309.06 557.03 312.23 555.23 Z" />
</svg>
